<svg xmlns="http://www.w3.org/2000/svg" xmlns:xlink="http://www.w3.org/1999/xlink" viewBox="0 0 178.56 178.61" xmlns:v="https://vecta.io/nano"><g fill="#3f2b5a"><circle cx="89.28" cy="89.28" r="75.12"/><path d="M89.28 165.4c-41.97 0-76.12-34.15-76.12-76.12s34.15-76.12 76.12-76.12 76.12 34.15 76.12 76.12-34.15 76.12-76.12 76.12zm0-150.23c-40.87-.01-74.12 33.24-74.12 74.11s33.25 74.12 74.12 74.12 74.12-33.25 74.12-74.12-33.25-74.12-74.12-74.12z"/></g><path d="M43.12 60.57l.19-.27c.23-.32.36-.58.4-.78s-.01-.4-.14-.6c-.1-.14-.4-.41-.91-.8l-2.87-2.09-4.13-2.94-.88 1.24c-.53.75-.8 1.34-.78 1.77.01.43.29.91.81 1.44l-.63.57-1.19-1.23-1.21-1.03a4.16 4.16 0 0 0 .68-.67c.26-.31.67-.86 1.23-1.65l1.13-1.59.64-.9 1.3-1.83 1.27-1.87c.22-.37.36-.65.4-.87l.22.16 1.2.78 1.38.77-.36.72c-.65-.34-1.16-.45-1.54-.35s-.83.52-1.36 1.25l-.13.18-.77 1.09 2.25 1.65 2.6 1.86 1.35.96 1.37.91c.28.15.5.24.67.27.17.01.34-.04.5-.15.16-.12.34-.31.54-.59l.18-.25.65.46-.4.52-1.44 1.88-.66.98-.93 1.44-.65-.46zM41.33 43.3l.59-.45 1.46-1.13 1.63-1.47.4-.37.51.61-.16.13c-.39.32-.57.64-.55.95s.38.87 1.07 1.7l.26.31 1.25 1.49 1.15-.91 1.1-.91 1.14-.97 1.37-1.2-1.5-1.79c-.69-.82-1.18-1.28-1.48-1.35-.29-.08-.64.05-1.03.38l-.16.13-.51-.61 1.22-.92.94-.75 1.36-1.24.54-.5.51.6-.09.07c-.04.03-.08.06-.13.11-.36.3-.5.62-.43.96s.44.91 1.11 1.71l.62.73.74.86 1.2 1.43.85 1.03.69.83c.59.71 1.05 1.12 1.36 1.23s.65 0 1.01-.3l.15-.13c.03-.03.06-.06.08-.09l.52.62-.68.51-1.43 1.12-.91.79-1.19 1.1-.52-.62s.08-.07.14-.11.1-.07.12-.09c.39-.32.56-.64.52-.96-.04-.31-.41-.9-1.12-1.74l-.43-.51-1.21-1.45-1.28 1.03-1.14.94-1.44 1.22-.9.79 1.64 1.95c.71.85 1.22 1.32 1.52 1.41s.65-.02 1.04-.35c.02-.02.06-.05.11-.11l.13-.12.52.62-1.3.98-.93.74-1.35 1.21-.63.58-.52-.62s.07-.05.11-.07l.16-.13c.36-.3.51-.63.44-.97-.07-.35-.44-.91-1.1-1.7l-.64-.75-.76-.89-1.21-1.45-.8-.97-.65-.79c-.61-.72-1.07-1.14-1.38-1.26-.32-.11-.65-.02-1 .27-.06.05-.1.09-.13.12s-.06.05-.09.08l-.51-.6zm15.69-11.84l2.56-1.05 2.05-.89 2.48-1.15 1.86-.94.69 1.36.76 1.32-.68.42c-.38-.64-.8-1-1.28-1.07-.47-.07-1.26.14-2.37.64l-.79.37-1.19.58.89 2.06.81 1.89.23-.11 1.17-.51.93-.41c.74-.33 1.19-.62 1.36-.87.16-.25.16-.58 0-1l.62-.21.43 1.03.35.84.26.55.4.8-.65.35-.04-.1c-.21-.46-.48-.72-.82-.76s-1 .16-1.99.6l-1.2.54-.61.27.42.93.67 1.47.83 1.79.94-.33 1.2-.5c1.28-.58 2.08-1.09 2.38-1.56.31-.46.42-1.13.34-2.02l.85-.1.21 1.68.29 1.51-3.07 1.27-2.01.88-3.13 1.49-1.12.55-.32-.71s.07-.02.11-.04l.18-.08c.45-.2.69-.48.73-.83s-.21-1.12-.74-2.3l-.36-.81-.33-.74-.79-1.81c-.04-.08-.09-.2-.16-.37l-.59-1.37-.35-.76-.2-.43c-.21-.47-.44-.76-.69-.87s-.59-.07-1 .12l-.19.08-.33-.73zm22.24-7.48l2.77-.09 2.23-.12 2.72-.21 2.07-.23.17 1.51.25 1.5-.79.16c-.13-.73-.41-1.21-.83-1.45-.42-.23-1.23-.31-2.44-.23l-.87.07-1.32.13.12 2.24.11 2.06.26-.02 1.27-.08 1.02-.06c.81-.06 1.34-.17 1.58-.35s.36-.49.34-.94l.66.02.05 1.11.04.91.05.61.1.89-.74.1v-.11c-.04-.51-.21-.84-.51-1s-.99-.2-2.07-.13l-1.31.09-.67.05.07 1.02.12 1.61.16 1.97c.27.02.6.02 1 .02l1.3-.06c1.4-.1 2.33-.31 2.77-.63.45-.33.79-.92 1.02-1.77l.83.2-.39 1.65-.25 1.52-3.32.13-2.19.12-3.45.31-1.24.13-.05-.78h.12.2c.49-.03.82-.21.97-.52.15-.32.19-1.12.1-2.41l-.06-.89-.06-.81-.12-1.97c0-.09-.01-.22-.02-.4l-.07-1.49-.07-.83-.04-.48c-.03-.51-.15-.86-.35-1.05s-.53-.27-.98-.24h-.2l-.05-.78zm16.11 11.64l.32.06c.39.07.68.07.87.02s.35-.18.48-.38c.09-.15.2-.54.33-1.17l.64-3.49.87-5-1.5-.26c-.91-.16-1.55-.14-1.94.06-.38.2-.7.65-.95 1.36l-.79-.32.6-1.6.41-1.54c.21.11.51.22.9.32s1.07.23 2.02.4l1.92.33 1.09.19 2.21.38 2.24.34c.43.04.74.04.96 0l-.05.27-.19 1.42-.1 1.57h-.8c.03-.74-.09-1.25-.35-1.56-.26-.3-.83-.53-1.72-.68l-.22-.04-1.31-.23-.51 2.75-.56 3.15-.28 1.63-.23 1.62c-.02.32 0 .55.04.72.06.16.18.29.35.39s.43.17.77.23l.3.05-.14.79-.64-.14-2.32-.48-1.17-.18-1.7-.21.14-.79zm14.38-9.21l.66.33 1.65.82 2.03.82.5.2-.33.73-.18-.08c-.46-.21-.83-.23-1.09-.08s-.62.72-1.06 1.7l-.16.36-.79 1.77 1.32.63 1.3.6 1.37.6 1.68.71.96-2.14c.44-.98.63-1.62.57-1.92s-.32-.55-.79-.76l-.18-.08.33-.73 1.36.69 1.09.52 1.71.69.69.27-.32.72-.11-.05c-.04-.02-.09-.05-.15-.07-.42-.19-.77-.18-1.05.03-.27.21-.63.79-1.05 1.75l-.38.88-.46 1.04-.76 1.71-.55 1.21-.45.98c-.38.85-.55 1.43-.51 1.76s.28.59.71.78l.18.08c.04.02.08.03.11.04l-.33.74-.76-.39-1.63-.8-1.11-.47-1.51-.58.33-.74.16.08.13.07c.46.21.83.22 1.09.05.27-.17.62-.76 1.08-1.77l.27-.61.77-1.72-1.49-.69-1.35-.61-1.73-.76-1.1-.46-1.04 2.33c-.45 1.01-.65 1.67-.6 1.98s.31.57.77.78c.03.01.08.03.15.06.07.02.12.05.16.06l-.33.74-1.45-.74-1.08-.51-1.69-.68-.8-.31.33-.74.12.07.19.09c.43.19.78.18 1.06-.03s.63-.79 1.05-1.73l.39-.9.47-1.07.77-1.72.52-1.15.43-.93c.39-.86.56-1.46.52-1.8-.04-.33-.26-.59-.68-.78l-.16-.07c-.04-.01-.07-.03-.11-.04l.32-.72zm17.79 9.09l2.07 1.84 1.7 1.45 2.12 1.72 1.66 1.26-.92 1.21-.85 1.26-.68-.43c.41-.62.54-1.16.4-1.62s-.68-1.07-1.61-1.85l-.68-.55-1.05-.82-1.46 1.7-1.34 1.56.2.16.97.82.78.66c.62.52 1.08.8 1.38.84s.59-.11.9-.44l.46.47-.73.84-.6.68-.38.48-.54.71-.6-.43.07-.08c.32-.39.43-.75.32-1.07s-.58-.83-1.41-1.52l-1.01-.84-.51-.43-.65.78-1.03 1.25-1.24 1.53c.18.2.42.43.71.7l.98.86c1.08.9 1.9 1.39 2.44 1.46s1.2-.12 1.96-.58l.46.72-1.42.93-1.23.93-2.49-2.2-1.67-1.43-2.72-2.16-.98-.76.5-.6.08.09c.03.03.08.07.15.13.38.32.73.41 1.06.29s.91-.68 1.74-1.67l.57-.68.52-.63 1.28-1.51.26-.3.98-1.13.53-.65.3-.37c.33-.4.49-.73.47-1-.01-.27-.2-.56-.55-.85l-.16-.13.51-.61zm11.64 10.54l.8 1.17.7.96.74.95.98 1.19-.64.48-.08-.12-.07-.11c-.3-.39-.62-.57-.96-.53s-.93.37-1.76 1l-.66.51-.78.6-4.95 3.77.02.05.98 1.41c.89 1.18 1.6 1.86 2.12 2.04s1.22.13 2.08-.16l.29.8-1.59.59-1.54.7-1.69-2.36-1.46-1.97-1.36-1.75-1.4-1.72.62-.47.15.2c.19.25.36.43.52.53s.31.13.48.1c.36-.07 1.38-.73 3.07-1.99l.5-.37 1.55-1.15.82-.61.71-.53c.85-.64 1.35-1.13 1.5-1.47.16-.33.09-.69-.2-1.08l-.12-.16.62-.47z" fill="#fff"/><path d="M30.22 148.52l-4.09 3.82-.59-.63.64-4.87-2.77 2.59-.71-.76 4.09-3.82.59.63-.64 4.87 2.77-2.59.71.76zm-.31 4.1l2.11-2.36.79.7-2.08 2.33c-.77.86-.71 1.58-.03 2.19s1.4.58 2.17-.28l2.08-2.33.77.69-2.11 2.36c-1.09 1.22-2.38 1.26-3.53.23-1.16-1.03-1.26-2.31-.17-3.53zm7.76 2.5l.84.63-2.85 3.77 2.36 1.79-.53.7-3.19-2.42 3.38-4.47zm4.76 3.49l.88.57-2.57 3.96 2.48 1.61-.48.74-3.36-2.18 3.05-4.7zm6.21 8.71l-2.49-1.35-1.11.87-.95-.52 4.91-3.71.91.49-.42 6.15-.97-.52.12-1.41zm.08-.88l.23-2.66-2.1 1.65 1.87 1.01zm2.57 3l.66-.59c.27.51.82 1.04 1.46 1.32.8.36 1.27.22 1.44-.16.49-1.11-2.9-1.74-2.06-3.64.37-.83 1.34-1.24 2.76-.61.62.28 1.2.72 1.52 1.22l-.63.6c-.34-.48-.8-.83-1.25-1.03-.8-.35-1.26-.19-1.43.2-.48 1.09 2.89 1.74 2.06 3.62-.36.82-1.35 1.23-2.76.6-.8-.36-1.5-.96-1.77-1.52zm16.05.62l-1.64 5.36-1.01-.3.7-2.3-2.8-.85-.7 2.3-1-.3 1.64-5.36 1 .3-.68 2.21 2.8.85.68-2.21 1.01.31zm1.51 3.31c.33-1.62 1.84-2.56 3.56-2.21s2.74 1.81 2.4 3.44-1.85 2.56-3.56 2.21-2.74-1.81-2.4-3.44zm4.93 1.02c.23-1.12-.43-2.1-1.55-2.33-1.11-.23-2.11.4-2.34 1.53-.23 1.12.43 2.1 1.55 2.33a1.91 1.91 0 0 0 2.34-1.53zm6.75 3.76l-.96-1.76c-.07 0-.15 0-.22-.02l-1.27-.15-.19 1.62-1.04-.12.64-5.57 2.31.27c1.48.17 2.31 1.02 2.16 2.26-.1.84-.6 1.42-1.4 1.62l1.08 1.98-1.12-.13zm-.87-4.86l-1.22-.14-.26 2.22 1.22.14c.91.1 1.44-.25 1.52-.96.08-.7-.35-1.16-1.26-1.27zm8.27 3.97l-2.83-.09-.6 1.28-1.08-.03 2.71-5.53 1.03.03 2.39 5.68-1.1-.03-.53-1.31zm-.32-.83l-.99-2.48-1.13 2.42 2.12.06zm3.66 1.54l.32-.83c.47.34 1.2.56 1.89.52.88-.04 1.23-.38 1.21-.79-.06-1.21-3.38-.25-3.48-2.33-.04-.9.64-1.71 2.19-1.79.68-.03 1.4.11 1.9.4l-.29.82c-.52-.27-1.09-.39-1.58-.36-.87.04-1.21.4-1.19.82.06 1.19 3.37.25 3.47 2.31.04.9-.65 1.7-2.2 1.78-.88.04-1.77-.18-2.26-.56zm14.63-6.67l.96 5.52-.85.15-3.72-3.2.65 3.74-1.03.18-.96-5.52.85-.15 3.72 3.21-.65-3.74 1.03-.18zm2.53-.6l1.02-.25 1.32 5.45-1.02.25-1.32-5.45zm4.56 4.03l.11-.88c.54.21 1.3.25 1.96.04.84-.26 1.11-.67.98-1.06-.35-1.16-3.34.59-3.95-1.4-.27-.86.21-1.81 1.69-2.27.65-.2 1.38-.24 1.95-.08l-.08.87c-.57-.13-1.15-.11-1.62.04-.83.26-1.08.68-.95 1.09.35 1.14 3.33-.59 3.93 1.38.26.86-.21 1.81-1.7 2.26-.84.26-1.76.26-2.33.01zm4.84-6.84l.98-.37 1.99 5.24-.98.37-1.99-5.24zm11.67-.38l-2.54 1.25.07 1.41-.97.48-.2-6.15.93-.46 4.77 3.91-.99.48-1.08-.92zm-.67-.58l-2.04-1.73.13 2.67 1.91-.94zm3.3-2.11l-1.63-2.71.9-.54 1.61 2.68c.6.99 1.3 1.14 2.08.67s.97-1.16.37-2.15l-1.61-2.68.88-.53 1.63 2.71c.84 1.4.51 2.64-.81 3.44-1.33.8-2.58.52-3.43-.88zm10.96-4.28l-1.9-.65c-.05.05-.11.09-.17.13l-1.03.75.96 1.32-.85.62-3.3-4.53 1.88-1.37c1.2-.87 2.39-.81 3.12.2.5.69.51 1.45.07 2.14l2.13.73-.91.66zm-3.93-2.98l-.99.72 1.31 1.81.99-.72c.74-.54.88-1.16.47-1.73-.42-.57-1.04-.62-1.78-.08zm9.49-2.72l.57.66-3.22 2.76-3.65-4.26 3.13-2.68.57.66-2.34 2 .95 1.11 2.07-1.78.56.65-2.07 1.78 1.01 1.17 2.42-2.07zm4.2-4.7l-1.99 2.01.53 1.31-.76.77-2.19-5.75.73-.73 5.78 2.13-.77.78-1.32-.51zm-.83-.33l-2.49-.97 1 2.48 1.49-1.51zm3.61-1.62l-.38-.8c.57-.11 1.23-.5 1.67-1.03.57-.67.57-1.16.25-1.43-.92-.78-2.48 2.29-4.07.95-.69-.58-.81-1.64.19-2.82.44-.52 1.03-.95 1.59-1.12l.4.77c-.55.2-1.02.53-1.34.91-.56.66-.53 1.15-.21 1.43.91.77 2.48-2.29 4.05-.96.69.58.8 1.64-.2 2.82-.57.67-1.34 1.17-1.95 1.27z" fill="#3f2b5a"/><circle cx="89.38" cy="89.2" r="43.42" fill="#fff"/><g fill="#3f2b5a"><path d="m89.38,133.49c-24.42,0-44.29-19.87-44.29-44.29s19.87-44.29,44.29-44.29,44.29,19.87,44.29,44.29-19.87,44.29-44.29,44.29Zm0-86.85c-23.47,0-42.56,19.09-42.56,42.56s19.09,42.56,42.56,42.56,42.56-19.09,42.56-42.56-19.09-42.56-42.56-42.56Z"/><circle cx="89.62" cy="88.9" r="39.92"/></g><g fill="#fff"><path d="m141.83,71.24v4.9h-.69v-4.29h-1.11v-.61h1.8Z"/><use xlink:href="#B"/><path d="m146.9,73.63c0,1.67-.95,2.57-2.32,2.57-.46,0-.9-.09-1.22-.29l.27-.55c.26.17.59.23.95.23.99,0,1.62-.62,1.62-1.85v-.17c-.29.43-.81.64-1.42.64-.97,0-1.67-.58-1.67-1.49s.76-1.55,1.73-1.55c1.32,0,2.06.88,2.06,2.44Zm-.86-.93c0-.5-.41-.95-1.17-.95-.64,0-1.08.37-1.08.95s.43.95,1.11.95,1.13-.41,1.13-.95Z"/><path d="M144.58 76.31c-.51 0-.96-.11-1.28-.3l-.09-.05.37-.75.11.07c.22.14.52.21.88.21.93 0 1.47-.57 1.51-1.6-.31.29-.76.45-1.3.45-1.05 0-1.79-.66-1.79-1.6s.76-1.66 1.84-1.66c1.38 0 2.17.93 2.17 2.56s-.93 2.68-2.43 2.68zm-1.07-.45c.27.14.65.22 1.07.22 1.38 0 2.21-.92 2.21-2.46s-.69-2.33-1.95-2.33c-.95 0-1.62.59-1.62 1.43s.63 1.37 1.56 1.37c.59 0 1.06-.21 1.32-.59l.21-.31v.55c0 1.25-.63 1.96-1.74 1.96-.36 0-.66-.06-.9-.19l-.17.34zm1.39-2.1c-.75 0-1.23-.42-1.23-1.06s.48-1.07 1.19-1.07c.88 0 1.28.55 1.28 1.06 0 .62-.52 1.07-1.25 1.07zm-.04-1.9c-.59 0-.97.33-.97.84s.38.83 1 .83 1.02-.35 1.02-.84c0-.41-.33-.83-1.06-.83zm4.56-.62v4.9h-.69v-4.29h-1.11v-.61h1.8z"/><use xlink:href="#B" x="7.59"/><path d="m152.36,71.24v4.9h-.69v-4.29h-1.11v-.61h1.8Z"/><use xlink:href="#B" x="10.53"/><path d="m27.81,75.54v.61h-3.56v-4.9h3.46v.61h-2.76v1.51h2.46v.59h-2.46v1.58h2.86Z"/><path d="M27.93 76.26h-3.79v-5.13h3.69v.84h-2.76v1.28h2.46v.82h-2.46v1.36h2.86v.84zm-3.56-.23h3.33v-.38h-2.86v-1.81h2.46v-.37h-2.46v-1.73h2.76v-.38h-3.23v4.67zm4.48-.45l.26-.55c.36.33.99.57 1.62.57.85 0 1.21-.33 1.21-.76 0-1.2-2.97-.44-2.97-2.26 0-.76.59-1.4 1.88-1.4.57 0 1.17.15 1.58.43l-.23.56c-.43-.27-.91-.4-1.34-.4-.83 0-1.19.35-1.19.78 0 1.2 2.97.45 2.97 2.25 0 .75-.6 1.39-1.9 1.39-.75 0-1.48-.25-1.88-.62z"/><path d="M30.72 76.31c-.76 0-1.53-.25-1.95-.65l-.06-.06.36-.76.11.1c.36.33.97.54 1.54.54.7 0 1.1-.23 1.1-.64s-.44-.55-1.17-.73c-.8-.19-1.8-.44-1.8-1.53 0-.73.52-1.52 1.99-1.52.61 0 1.23.17 1.64.45l.08.05-.32.77-.11-.07c-.38-.25-.84-.38-1.28-.38-.67 0-1.08.25-1.08.66s.44.56 1.17.73c.8.19 1.8.44 1.8 1.52 0 .7-.53 1.51-2.01 1.51zm-1.74-.76c.39.32 1.08.53 1.74.53 1.32 0 1.78-.66 1.78-1.28 0-.9-.83-1.1-1.62-1.29-.66-.16-1.35-.33-1.35-.95 0-.21.09-.89 1.3-.89.44 0 .9.12 1.29.35l.15-.35c-.37-.23-.9-.36-1.44-.36-1.09 0-1.76.49-1.76 1.29 0 .92.83 1.12 1.63 1.31.69.17 1.34.33 1.34.95 0 .54-.5.87-1.33.87-.57 0-1.17-.19-1.58-.5l-.16.34zm6.05-3.7h-1.68v-.61h4.05v.61h-1.68v4.29h-.69v-4.29z"/><path d="M35.84 76.26h-.92v-4.29h-1.68v-.84h4.28v.84h-1.68v4.29zm-.69-.23h.47v-4.29h1.68v-.38h-3.83v.38h1.68v4.29zm2.73-.33c0-.28.22-.48.48-.48s.46.2.46.48-.21.48-.46.48a.48.48 0 0 1-.48-.48z"/><path d="M38.36 76.3c-.33 0-.59-.26-.59-.6a.58.58 0 0 1 .59-.59c.33 0 .58.26.58.59s-.25.6-.58.6zm0-.96c-.21 0-.36.16-.36.36s.16.37.36.37.35-.16.35-.37-.15-.36-.35-.36zM25.22 92.03l6.7 1.86 1.59-.71c.49-.21.8-.42.94-.61s.19-.45.16-.79a.82.82 0 0 0-.03-.18c-.01-.08-.02-.14-.03-.17l.82-.09.03.47.15 2.28.14 1.07.25 1.55-.82.09s0-.11-.01-.19v-.17c-.04-.36-.12-.6-.24-.73-.13-.13-.33-.18-.61-.15-.13.01-.33.07-.57.16l-1.01.43-6.67 2.98 1.5.35 7.31 1.49c.28-.03.46-.13.56-.3s.12-.46.08-.86l-.03-.26.82-.09c0 .14.02.32.03.57l.11 1.77c.03.3.12.87.27 1.72l.09.57-.82.09v-.1c0-.04 0-.1-.01-.17-.07-.66-1.17-1.24-3.29-1.74l-1.94-.47-2.15-.57-1.05-.29-4.53-1.08-.19-1.74.79-.29.91-.4 5.61-2.57-5.92-1.66-1.14-.29-.82-.14-.19-1.74c.4-.12 1.79-.76 4.16-1.92l.83-.41 2.45-1.21 1.59-.74c1.95-.91 2.9-1.67 2.83-2.29 0-.06-.02-.14-.06-.26 0-.02 0-.03-.01-.05l.82-.09.09 1.6.09 1.06.27 1.84.12.78-.82.09-.02-.21c-.03-.31-.12-.54-.24-.68-.13-.14-.31-.2-.54-.17-.21.02-.65.2-1.33.53l-.05.02-6.91 3.25zm14.1 16.51l.88 2.08-5.58 5.16-3.33 3.27c-.25.25-.39.5-.44.75s0 .53.13.85l.08.19-.76.33-.63-1.69-.4-.98-.43-.96-.8-1.71.76-.33.07.15c.19.45.37.73.54.85s.38.12.64 0c.08-.04.17-.08.27-.15a4.56 4.56 0 0 0 .4-.32l1.75-1.58-.52-1.29-.41-1-.65-1.47-.27-.62h-.1c-1.59.02-2.56.11-2.91.26-.29.13-.47.3-.53.52s0 .53.16.92l.06.15-.76.33-.57-1.54-.36-.9-.34-.76-.65-1.35.76-.33c.17.41.38.71.63.89.24.18.57.29.97.32.54.06 2.01.08 4.39.07l7.93-.14zm-1.83 1.34l-5.47.15.28.69.41.97.47 1.09.32.73 4-3.63zm5.75 7.08l.84 1.23.73 1.01.78.99 1.03 1.24-.66.51-.09-.13-.08-.12c-.31-.41-.65-.6-1-.56-.36.04-.96.39-1.82 1.05l-.68.54-.81.63-5.13 3.96.03.05 1.03 1.48c.93 1.23 1.67 1.95 2.22 2.13.54.19 1.27.13 2.16-.17l.31.84-1.65.62-1.6.73-1.77-2.48-1.53-2.07-1.43-1.84-1.47-1.8.65-.5.16.21c.2.27.38.45.54.55a.7.7 0 0 0 .5.11c.37-.07 1.43-.76 3.18-2.09l.52-.39 1.61-1.21.85-.64.73-.55c.88-.67 1.4-1.19 1.56-1.54s.09-.73-.22-1.13l-.13-.17.65-.5zm7.15 9.4l1.27 1.13.87.73.82.63 1.38 1.03-.5.63-.14-.12c-.44-.36-.82-.48-1.13-.39-.31.1-.85.62-1.61 1.58l-3.89 4.9c-.77.97-1.16 1.61-1.18 1.94s.17.66.59.99l.13.09.15.11-.52.65-.62-.54-1.59-1.38-.94-.72-1.37-1 .52-.65.1.1c.04.03.09.08.16.14.39.31.75.4 1.09.26s.88-.69 1.64-1.64l.59-.75.41-.53.26-.35 1.26-1.59.78-.97.65-.8c.65-.82.99-1.39 1.03-1.73.04-.33-.13-.66-.52-.97-.01-.01-.05-.03-.1-.07a.63.63 0 0 1-.11-.08l.51-.64zm6.17 4.97l.36.33 1.6 1.4 1.49 1.09.46.34-.51.65-.14-.11c-.57-.46-1.49-.63-2.76-.51h-.01l-5.23.48.52 5.92.06.8c.12 1.54.4 2.49.83 2.85l.13.1c.03.02.06.04.09.05l-.53.65-.41-.38-1.23-1.09c-.13-.11-.46-.35-.98-.71l-.75-.54c.02-.01.03-.02.04-.03.01 0 .03-.03.05-.06.25-.31.24-1.94-.02-4.88l-.3-3.51 4.89-.68.19-.04c1.32-.19 2.03-.35 2.14-.48.1-.13.12-.25.07-.39-.05-.13-.19-.29-.41-.47l-.16-.13.51-.64zm5.42 3.94l2.6 1.28 2.11.99 2.61 1.15 2.02.81-.58 1.48-.5 1.51-.8-.24c.24-.74.22-1.32-.06-1.74-.27-.42-.99-.89-2.14-1.42l-.83-.36-1.28-.54-.98 2.13-.9 1.95.24.11 1.21.56.97.45c.77.35 1.31.5 1.62.46s.57-.27.78-.7l.59.34-.5 1.05-.41.86-.25.59-.34.87-.73-.27.05-.1c.22-.48.22-.88.02-1.17s-.82-.67-1.85-1.14l-1.25-.57-.64-.29-.43.97-.68 1.55-.81 1.89.91.51 1.23.59c1.34.61 2.29.87 2.86.79s1.17-.46 1.8-1.14l.66.59-1.16 1.33-.97 1.28-3.12-1.52-2.08-.97-3.33-1.42-1.2-.49.33-.75.11.06.19.09c.47.21.85.21 1.15 0s.72-.94 1.27-2.18l.38-.85.35-.78.86-1.88.18-.38.66-1.41.35-.8.2-.46c.22-.49.28-.87.19-1.14s-.35-.51-.79-.7l-.19-.09.34-.76zm9.56 17.43l.14.04c.04.01.12.02.21.04.5.08.86-.02 1.09-.32s.46-1.16.7-2.57l.11-.68.11-.63.06-.34.38-2.04.23-1.29.26-1.54c.13-.77.12-1.28-.03-1.54s-.47-.43-.98-.51l-.19-.03.13-.8 1.6.34 1.1.21 1.68.24 1.35.18c1.5.26 2.63.77 3.39 1.55s1.05 1.7.87 2.78a2.97 2.97 0 0 1-.97 1.79c-.52.47-1.25.83-2.18 1.08l1.36 2.83c.62 1.47 1.1 2.42 1.44 2.82.33.41.72.65 1.16.72h.11.11l-.13.77-.97-.1-.72-.1c-.74-.13-1.3-.31-1.69-.54s-.72-.58-.98-1.04c-.13-.22-.41-.89-.85-2.02l-1.18-2.92-1-.14-.85-.13-.41 2.43c-.16.93-.16 1.53-.02 1.81.14.27.48.45 1.01.54l.25.04-.14.82-1.48-.32-1.52-.28-.75-.11-1.91-.25.14-.81zm5.04-5.08l.81.18.56.11.6.09.67.07c.58-.25 1.03-.58 1.35-.97s.53-.88.63-1.47c.13-.76-.02-1.42-.46-1.98-.43-.56-1.07-.91-1.92-1.05l-.72-.09-.65-.03-.36 2.08-.52 3.06zm26.54-6.67l.04.2.34 1.35.5 1.39-.91.34c-.25-.77-.66-1.31-1.21-1.62-.56-.31-1.25-.38-2.09-.22-.78.15-1.36.42-1.74.82s-.52.87-.41 1.41c.07.37.22.66.45.89s.56.41.97.53c.33.1.88.2 1.65.3l1.72.26c.85.18 1.52.49 2.02.94s.81 1.04.95 1.77c.25 1.33-.05 2.48-.91 3.46-.86.99-2.15 1.64-3.87 1.98-.57.11-1.15.17-1.75.16a9.66 9.66 0 0 1-1.78-.16l-.04-.27-.04-.25c-.09-.47-.21-.94-.36-1.41a15.26 15.26 0 0 0-.55-1.45l.94-.44c.44 1.07.96 1.78 1.55 2.13s1.39.42 2.4.22c.81-.16 1.42-.46 1.82-.92a1.82 1.82 0 0 0 .43-1.6c-.17-.87-1.14-1.45-2.91-1.71l-.9-.14c-1.23-.21-2.15-.55-2.75-1.03-.61-.48-.99-1.14-1.15-2-.22-1.18.05-2.22.81-3.11.77-.9 1.89-1.49 3.38-1.78a9.33 9.33 0 0 1 1.6-.16c.55 0 1.15.03 1.79.11zm13.45-5.46c.03.06.06.15.11.27l.11.27.59 1.18.79 1.32-.76.52c-.47-.8-1.12-1.29-1.94-1.47-.83-.18-1.75-.04-2.77.42-1.3.59-2.12 1.46-2.47 2.6s-.19 2.45.48 3.94c.72 1.61 1.7 2.7 2.94 3.28 1.23.58 2.53.56 3.88-.05.85-.39 1.49-.91 1.91-1.58.43-.66.65-1.48.67-2.44h.89v1.58a13.63 13.63 0 0 0 .14 1.46c-.55.59-1.12 1.1-1.7 1.54s-1.17.79-1.77 1.07c-1.95.89-3.78 1.03-5.51.42s-3.02-1.85-3.86-3.72c-.83-1.85-.88-3.66-.16-5.44.73-1.77 2.06-3.11 4.01-4 .7-.32 1.41-.58 2.13-.77a14.63 14.63 0 0 1 2.28-.41zm1.51-1.25l.61-.48 1.51-1.2 1.69-1.55.41-.39.54.64-.16.14c-.4.34-.59.68-.57 1s.4.91 1.12 1.77l.27.32 1.3 1.55 1.19-.96 1.15-.96 1.18-1.03 1.43-1.27-1.57-1.87c-.72-.86-1.24-1.33-1.54-1.4-.31-.08-.66.06-1.07.41l-.16.14-.54-.64 1.27-.97.98-.8 1.42-1.31.57-.53.53.63-.1.08c-.04.03-.08.07-.14.11-.37.32-.52.65-.44 1.01.07.36.46.95 1.16 1.78l.65.76.77.9 1.26 1.49.89 1.07.72.86c.62.74 1.1 1.16 1.42 1.27s.68 0 1.06-.32l.16-.14.09-.09.54.64-.7.54-1.48 1.18-.94.84-1.23 1.16-.54-.64.15-.11.13-.09c.4-.34.58-.68.54-1.01s-.43-.94-1.17-1.82l-.45-.53-1.27-1.5-1.32 1.09-1.19 1-1.5 1.29-.93.83 1.71 2.03c.74.88 1.27 1.37 1.59 1.46s.68-.03 1.08-.38l.12-.11c.06-.05.1-.1.13-.12l.54.64-1.34 1.04-.97.79-1.4 1.29-.65.62-.54-.64.11-.08.17-.14c.37-.32.52-.66.45-1.02-.08-.36-.46-.95-1.15-1.77l-.67-.78-.79-.93-1.27-1.5-.84-1.01-.68-.83c-.64-.75-1.12-1.19-1.45-1.3-.33-.12-.68-.02-1.04.29l-.14.12c-.03.03-.06.06-.09.08l-.53-.63zm15.58-16.77c.53-.82 1.12-1.49 1.76-1.99a6.47 6.47 0 0 1 2.19-1.11c.95-.27 1.92-.34 2.89-.18.97.15 1.88.51 2.73 1.06 1.68 1.1 2.7 2.59 3.08 4.47s0 3.68-1.1 5.4c-.58.9-1.25 1.61-2.01 2.15-.76.53-1.61.89-2.54 1.08a6.55 6.55 0 0 1-2.61-.03c-.87-.18-1.69-.53-2.47-1.04-.86-.56-1.55-1.26-2.07-2.08s-.84-1.74-.98-2.75c-.12-.84-.07-1.7.13-2.57a7.49 7.49 0 0 1 1-2.4zm8.29.36c-1.46-.96-2.85-1.38-4.17-1.28s-2.34.7-3.05 1.8c-.68 1.06-.83 2.16-.45 3.31s1.24 2.16 2.59 3.04c1.47.96 2.87 1.39 4.2 1.29s2.35-.71 3.07-1.8c.69-1.06.84-2.16.45-3.3s-1.26-2.15-2.62-3.05zm-1.83-14.55c.27-.94.65-1.75 1.12-2.42s1.06-1.23 1.78-1.7c.83-.54 1.74-.88 2.72-1.02s1.95-.06 2.91.22c1.92.56 3.33 1.69 4.23 3.38s1.06 3.52.49 5.49c-.3 1.03-.73 1.91-1.3 2.64s-1.28 1.33-2.13 1.77a6.74 6.74 0 0 1-2.51.74c-.88.08-1.77-.01-2.66-.27-.98-.29-1.84-.75-2.58-1.39a6.66 6.66 0 0 1-1.72-2.35c-.35-.77-.56-1.61-.62-2.5s.03-1.76.27-2.59zm8.04-2.08c-1.67-.49-3.12-.49-4.36-.01a3.81 3.81 0 0 0-2.41 2.62c-.35 1.21-.18 2.31.51 3.3s1.81 1.71 3.35 2.16c1.68.49 3.14.5 4.39 0 1.25-.49 2.05-1.36 2.42-2.62.35-1.22.18-2.32-.52-3.29-.7-.98-1.82-1.7-3.39-2.15zm-5.73-6.42l.11-1.49.05-1.25v-1.27l-.03-1.62.83.02s0 .09-.01.16c0 .07-.01.11-.01.14-.01.52.13.88.43 1.07s.99.3 2.07.33l.86.01 1.02.02 6.46.15v-.06l.13-1.81c.04-1.55-.1-2.57-.4-3.06-.31-.49-.91-.9-1.79-1.23l.28-.85 1.67.56 1.7.44-.16 3.05-.09 2.58-.03 2.33.02 2.33-.81-.02v-.26c.01-.33-.01-.59-.08-.77-.06-.18-.17-.31-.32-.4-.33-.18-1.59-.31-3.78-.38l-.64-.03-2-.07c-.27 0-.63-.02-1.06-.04l-.92-.03c-1.1-.03-1.83.04-2.17.22s-.52.51-.53 1.02v.21l-.81-.02z"/></g><path d="M16.77 141.38l-.66-.93 3.63-2.54.62.88-3.6 2.59zm-1.3-1.86l-.63-.94 3.69-2.45.6.89-3.66 2.5zm148.84-1.83l-3.72-2.41.58-.91 3.75 2.36-.61.96zm-150.09-.06l-.61-.96 3.75-2.36.58.91-3.72 2.4zm151.3-1.87l-3.78-2.31.56-.93 3.81 2.26-.59.97zm-152.51-.05l-.58-.97 3.81-2.26.55.92-3.78 2.31zm153.67-1.9l-3.84-2.22.53-.94 3.87 2.17-.56.99zm-154.82-.04l-.56-.98 3.87-2.16.53.94-3.84 2.21zm155.94-1.94l-3.9-2.11.51-.95 3.92 2.06-.54 1zm-157.04-.03l-.53-1 3.92-2.07.51.95-3.9 2.11zm158.1-1.98l-3.95-2.02.49-.97 3.97 1.96-.51 1.02zm-159.15-.03l-.51-1.01 3.97-1.96.48.96-3.95 2.01zm160.16-2.02l-4-1.91.46-.98 4.02 1.86-.48 1.03zm-161.16-.01l-.48-1.03 4.03-1.86.46.97-4 1.91zm162.12-2.05l-4.04-1.81.44-.99 4.07 1.76-.46 1.04zm-163.07 0l-.46-1.04 4.07-1.76.43.98-4.05 1.81zm-.9-2.07l-.43-1.05 4.11-1.65.41.99-4.09 1.71zm164.87-.02l-4.09-1.71.41-1 4.11 1.65-.43 1.06zM6.01 121.53l-.4-1.06 4.15-1.55.38 1.01-4.13 1.6zm166.57-.03l-4.13-1.6.38-1.01 4.15 1.55-.4 1.06zM5.22 119.4l-.38-1.07 4.19-1.44.36 1.02-4.17 1.5zm168.16-.04l-4.17-1.49.36-1.03 4.19 1.44-.38 1.07zm-168.9-2.11l-.35-1.08 4.23-1.33.33 1.03-4.21 1.39zm169.64-.04l-4.21-1.39.33-1.03 4.23 1.33-.35 1.09zM3.79 115.08l-.32-1.09 4.26-1.23.31 1.04-4.24 1.28zm171-.05l-4.24-1.28.3-1.04 4.26 1.22-.32 1.09zM3.16 112.9l-.29-1.1 4.29-1.11.28 1.04-4.28 1.17zm172.26-.05l-4.28-1.17.28-1.04 4.29 1.11-.29 1.1zM2.59 110.7l-.26-1.11 4.32-1 .25 1.05-4.3 1.06zm173.4-.06l-4.3-1.06.25-1.05 4.32 1-.26 1.1zM2.07 108.49l-.24-1.11 4.34-.89.22 1.05-4.33.95zm174.43-.06l-4.33-.94.22-1.06 4.34.89-.23 1.11zM1.61 106.26l-.21-1.12 4.36-.78.2 1.06-4.35.84zm175.34-.06l-4.35-.83.2-1.06 4.36.78-.21 1.12zM1.21 104.03l-.18-1.12 4.38-.67.17 1.07-4.37.73zm176.14-.06l-4.37-.72.17-1.07 4.38.67-.18 1.12zM.87 101.78l-.15-1.13 4.4-.56.14 1.07-4.39.62zm176.83-.06l-4.39-.61.14-1.07 4.4.56-.15 1.12zM.58 99.53L.46 98.4l4.41-.45.12 1.07-4.4.5zm177.4-.06l-4.4-.5.12-1.07 4.41.45-.12 1.13zM.35 97.27l-.09-1.13 4.42-.33.09 1.07-4.42.39zm177.86-.06l-4.42-.39.09-1.08 4.42.33-.09 1.13zM.18 95.01l-.06-1.14 4.43-.22.06 1.08-4.42.28zm178.2-.06l-4.42-.28.06-1.08 4.43.22-.06 1.13zM.07 92.74l-.04-1.13 4.43-.11.03 1.07-4.43.17zm178.43-.06l-4.43-.17.03-1.08 4.43.11-.04 1.13zM0 90.48v-1.13h4.43v1.07L0 90.48zm178.54-.06l-4.43-.05v-1.08-.12h4.43v.12 1.13zM4.43 88.27L0 88.22l.02-1.13 4.43.11-.02 1.08zm169.68-.17l-.02-1.08 4.43-.12.02 1.13-4.43.06zM4.48 86.12l-4.43-.16.05-1.13 4.43.22-.05 1.08zm169.57-.17l-.05-1.08 4.43-.23.05 1.14-4.43.17zM4.59 83.96l-4.42-.28.08-1.13 4.42.33-.07 1.08zm169.35-.17l-.08-1.07 4.42-.34.08 1.13-4.42.28zM4.75 81.8l-4.42-.39.11-1.13 4.41.44-.1 1.08zm169.03-.17l-.1-1.07 4.41-.45.11 1.13-4.42.39zM4.97 79.65l-4.4-.5.13-1.13 4.4.55-.13 1.07zm168.59-.17l-.13-1.07 4.4-.56.14 1.13-4.4.5zM5.24 77.5l-4.39-.61.16-1.12 4.38.66-.16 1.07zm168.05-.17l-.16-1.06 4.38-.68.17 1.13-4.39.61zM5.56 75.36l-4.37-.72.19-1.12 4.36.78-.18 1.06zm167.4-.17l-.18-1.06 4.36-.79.19 1.12-4.37.73zM5.94 73.23l-4.35-.83.22-1.11 4.34.89-.21 1.06zm166.64-.16l-.21-1.06 4.34-.9.22 1.12-4.35.84zM6.37 71.12l-4.33-.94.25-1.11 4.32 1-.24 1.05zm165.77-.16l-.24-1.05 4.32-1.01.25 1.11-4.33.95zM6.86 69.02l-4.31-1.05.28-1.1 4.29 1.12-.26 1.04zm164.79-.16l-.27-1.05 4.29-1.12.28 1.1-4.3 1.06zM7.4 66.93l-4.28-1.17.31-1.09 4.26 1.22-.29 1.04zm163.71-.16l-.29-1.04 4.26-1.23.31 1.09-4.27 1.17zM8 64.85l-4.25-1.27.34-1.09 4.23 1.33L8 64.85zm162.52-.16l-.32-1.03 4.23-1.34.34 1.09-4.24 1.28zM8.65 62.78L4.44 61.4l.36-1.08 4.19 1.44-.34 1.03zm161.22-.15l-.34-1.02 4.19-1.44.36 1.08-4.21 1.39zM9.36 60.73l-4.17-1.49.39-1.07 4.16 1.54-.37 1.02zm159.81-.14l-.37-1.02 4.15-1.55.39 1.06-4.17 1.5zM10.11 58.7l-4.14-1.59.42-1.06 4.11 1.65-.4 1.01zm158.3-.13l-.4-1.01 4.11-1.65.42 1.05-4.13 1.61zm-157.5-1.88l-4.09-1.7.44-1.05 4.07 1.75-.42 1zm156.69-.12l-.42-.99 4.07-1.76.44 1.04-4.09 1.71zM11.76 54.7l-4.05-1.8.47-1.04 4.02 1.86-.45.98zm154.98-.1l-.44-.98 4.02-1.87.47 1.03-4.05 1.81zM12.67 52.74l-4-1.91.5-1.02 3.97 1.96-.47.97zm153.17-.09l-.47-.97 3.97-1.97.5 1.02-4 1.92zM13.63 50.8l-3.95-2.01.52-1.01 3.92 2.06-.5.96zm151.26-.08l-.5-.96 3.92-2.07.52 1-3.95 2.02zM14.64 48.88l-3.9-2.11.55-1 3.87 2.16-.52.95zm149.25-.07l-.52-.94 3.87-2.17.55.99-3.9 2.12zM15.7 46.99l-3.84-2.21.57-.98 3.81 2.26-.54.93zm147.14-.06l-.54-.93 3.81-2.26.57.98-3.84 2.21zM16.8 45.13l-3.79-2.31.6-.97 3.75 2.36-.57.92zm144.94-.05l-.57-.92 3.75-2.36.6.96-3.78 2.31zM17.95 43.3l-3.72-2.41.62-.95 3.7 2.45-.59.91zm142.65-.04l-.59-.9 3.69-2.45.62.95-3.72 2.41zM19.15 41.5L15.49 39l.65-.93 3.63 2.55-.62.89zm140.26-.03l-.62-.89 3.63-2.54.64.93-3.66 2.5zM20.39 39.73l-3.6-2.59.67-.92 3.56 2.64-.64.87zm137.78-.03l-.64-.87 3.56-2.64.67.91-3.6 2.59zm-136.5-1.71l-3.53-2.68.69-.9 3.5 2.73-.66.86zm135.22-.02l-.66-.85 3.5-2.73.69.9-3.53 2.68zM23 36.29l-3.46-2.77.72-.88 3.42 2.81-.68.84zm132.56-.02l-.68-.84 3.42-2.81.71.88-3.46 2.77zM24.37 34.62l-3.39-2.86.74-.86 3.35 2.9-.7.82zm129.82-.02l-.7-.82 3.35-2.9.74.87-3.39 2.85zM25.78 32.98l-3.32-2.94.76-.85 3.27 2.99-.72.8zm127-.02l-.72-.8 3.28-2.98.76.84-3.32 2.94zM27.23 31.38l-3.24-3.02.78-.82 3.2 3.06-.74.79zm124.1-.01l-.74-.79 3.2-3.06.78.82-3.24 3.03zM28.72 29.82l-3.16-3.1.8-.8 3.12 3.14-.76.77zm121.12-.01l-.76-.77 3.12-3.14.8.8-3.16 3.11zM30.26 28.3l-3.08-3.18.82-.78 3.04 3.22-.78.75zm118.05-.01l-.78-.75 3.04-3.22.82.79-3.08 3.18zM31.83 26.82l-3-3.26.84-.76 2.96 3.3-.8.73zm114.91-.01l-.8-.72 2.96-3.3.84.77-3.01 3.26zM33.43 25.38l-2.92-3.34.86-.74 2.87 3.38-.81.7zm111.7-.01l-.82-.71 2.88-3.37.86.74-2.92 3.34zM35.07 23.98l-2.83-3.41.88-.72 2.79 3.44-.83.68zm108.42-.02l-.83-.68 2.79-3.45.88.72-2.83 3.41zM36.75 22.62L34 19.14l.9-.7 2.7 3.52-.85.66zm105.06-.02l-.85-.66 2.7-3.51.9.7-2.75 3.48zM38.45 21.3l-2.66-3.55.91-.68 2.61 3.58-.87.64zm101.64-.02l-.87-.64 2.61-3.58.91.67-2.65 3.55zm-99.9-1.25l-2.57-3.61.93-.65 2.52 3.64-.88.62zm98.16-.02l-.88-.62 2.52-3.65.94.66-2.57 3.61zm-96.38-1.2l-2.47-3.68.94-.63 2.43 3.71-.9.6zm94.61-.03l-.9-.6 2.42-3.71.95.63-2.48 3.68zm-92.81-1.15l-2.38-3.74.96-.6 2.33 3.77-.91.57zm91-.03l-.91-.57 2.33-3.77.96.61-2.38 3.74zM45.6 16.49l-2.29-3.8.98-.58 2.23 3.83-.92.55zm87.33-.03l-.93-.55 2.24-3.83.98.58-2.28 3.8zM47.46 15.4l-2.19-3.85.99-.55 2.14 3.88-.94.52zm83.6-.03l-.94-.53 2.13-3.88.99.55-2.18 3.86zm-81.72-1.01l-2.09-3.91 1-.53 2.04 3.93-.95.5zm79.83-.04l-.96-.5 2.04-3.94 1.01.53-2.08 3.91zm-77.92-.95l-1.99-3.96 1.01-.5 1.94 3.99-.96.48zm75.99-.04l-.97-.48 1.94-3.99 1.02.5-1.99 3.96zm-74.06-.9l-1.89-4.01 1.03-.48 1.83 4.04-.97.45zm72.11-.04l-.98-.45 1.83-4.04 1.04.48-1.88 4.01zm-70.16-.85l-1.78-4.06 1.04-.45 1.73 4.08-.99.43zm68.19-.05l-1-.43 1.73-4.08 1.04.45-1.78 4.06zm-66.21-.79l-1.68-4.1 1.06-.42 1.63 4.12-1 .4zm64.22-.05l-1.01-.4 1.62-4.12 1.06.42-1.67 4.1zm-62.21-.74l-1.58-4.14 1.06-.4 1.52 4.16-1.01.38zm60.2-.05l-1.02-.38 1.52-4.16 1.07.4-1.57 4.15zm-58.17-.69l-1.47-4.18 1.07-.37 1.42 4.2-1.02.35zm56.13-.05l-1.02-.35 1.41-4.2 1.08.37-1.46 4.18zm-54.09-.64l-1.36-4.22 1.08-.34 1.31 4.24-1.03.33zm52.03-.05l-1.03-.32 1.3-4.24 1.09.34-1.35 4.22zm-49.97-.59l-1.26-4.25 1.09-.31 1.2 4.27-1.04.3zm47.9-.04l-1.04-.3 1.19-4.27 1.09.31-1.25 4.25zm-45.83-.54l-1.14-4.28 1.1-.29 1.09 4.3-1.04.27zm43.75-.04l-1.04-.27 1.08-4.3 1.1.28-1.14 4.28zm-41.66-.49l-1.03-4.31 1.11-.26.97 4.32-1.05.24zm39.56-.04l-1.05-.24.97-4.32 1.11.26-1.03 4.31zm-37.46-.44l-.92-4.34 1.11-.23.87 4.35-1.06.22zm35.36-.03L105.81 6l.86-4.35 1.11.23-.92 4.34zm-33.24-.39l-.81-4.36 1.12-.2.75 4.37-1.06.19zm31.12-.03l-1.06-.19.75-4.37 1.12.2-.8 4.36zm-29-.34l-.7-4.38 1.12-.17.64 4.39-1.07.16zm26.87-.03l-1.07-.16.64-4.39 1.12.17-.69 4.38zm-24.73-.29L77.3.75l1.12-.14.53 4.4-1.07.14zm22.6-.02l-1.07-.13.53-4.4 1.13.14-.58 4.39zm-20.46-.24L79.55.47l1.13-.11.42 4.41-1.07.11zm18.31-.02l-1.07-.11.41-4.41 1.13.11-.47 4.41zm-16.16-.19L81.82.25l1.13-.09.31 4.42-1.08.08zm14.01-.01l-1.07-.08.3-4.42 1.13.08-.36 4.42zm-11.86-.14L84.08.09l1.13-.06.2 4.43-1.08.06zm9.71 0l-1.08-.05.19-4.43 1.14.06-.25 4.43zm-7.55-.09L86.35 0l1.13-.03.09 4.43-1.08.03zm5.39 0L90.8 4.4l.08-4.43 1.14.03-.13 4.43zm-3.24-.04l-.03-4.43h.66.48l-.03 4.43h-.46-.62z" fill="#3f2b5a"/><g fill="#fff"><path d="M49.39 90.16c.06-.01.11-.03.17-.03l2.67-.07c.13 0 .27.04.4.08.09.03.16.09.16.2s-.08.17-.17.19c-.25.05-.5.11-.75.12-.47 0-.93-.03-1.4-.04h-1.01l-.08-.23v-.2zm39.75-40.78c.01.09.04.17.04.26l-.03 3.59c0 .07 0 .15-.02.22-.05.16-.21.19-.32.06a.37.37 0 0 1-.08-.18c-.02-.06-.02-.13-.01-.2l.09-3.76h.34zm23.35 71.47c0 .23-.16.34-.36.24-.08-.04-.16-.11-.22-.19-2.42-3.42-5.03-6.71-7.53-10.07l-2.88-3.87c-.19-.25-.39-.49-.58-.73-.04-.05-.08-.1-.11-.16-.05-.09-.05-.19.02-.27s.22-.12.31-.05a.93.93 0 0 1 .23.21l7.88 10.49 2.35 3.19c.21.28.44.55.66.82.1.12.2.24.21.41zM86.67 106.3l-.04.31-.64 4-.62 4.26-.46 3.34-.62 4.18-.07.54c-.02.13-.06.25-.12.37-.05.09-.15.13-.26.1-.1-.03-.14-.11-.15-.21 0-.08 0-.16.02-.24.23-1 .34-2.02.46-3.04l.36-2.68.42-2.92.47-3.16.56-3.64.16-1.22a.67.67 0 0 1 .08-.25c.1-.16.29-.15.37.02.04.08.05.17.07.24zM57.11 65.71l.3-.4.22.15 7.65 5.8 4.76 3.7c.11.08.21.18.3.29.07.08.1.2.02.3-.07.09-.18.07-.27.04a1.51 1.51 0 0 1-.28-.15l-7.85-6.1-4.68-3.48-.16-.13zm7.79 55.03l-.34-.27.2-.26 9.92-12.64.6-.78c.05-.07.11-.14.18-.2.09-.07.2-.08.29 0 .1.08.12.18.06.29l-.13.21-2.45 3.05-8.15 10.4-.18.22zM82.04 80.8h-.46c-.14 0-.24-.09-.33-.19l-8.62-10.98-.97-1.21a3.62 3.62 0 0 1-.27-.41.63.63 0 0 1-.08-.23c-.03-.17.1-.28.25-.21.11.05.21.14.28.23l.54.67 7.95 10.16 1.57 1.99.14.19zm39.08-15.46l.28.37c-.02.03-.04.06-.07.07l-4.96 3.72-5.55 4.17-3.04 2.27a.92.92 0 0 1-.24.13c-.09.03-.2.02-.24-.07-.04-.07-.04-.17-.03-.25.01-.06.08-.13.13-.17l.25-.2 1.75-1.27 6.82-5.09 4.37-3.28.5-.4zm-50.08 34.79c0 .2-.11.31-.25.39l-1.63.97-8.99 5.2-1.07.55-.88.44-.13.06c-.1.05-.21.08-.29-.03-.08-.1-.03-.21.04-.29.09-.09.19-.18.3-.24l5.4-3.04 6.62-3.89.56-.31c.18-.08.31.01.31.19zm-17.07-5.62h-.18c-.17-.02-.24-.17-.14-.3.07-.08.18-.14.28-.19.07-.03.16-.04.24-.04l4.13-.49 3.39-.41 3.42-.42 2.71-.31.73-.12a1.43 1.43 0 0 1 .46.03c.19.06.2.25.03.35-.07.05-.17.07-.25.08l-2.27.29-3.05.38-2.51.31-2.8.37-2.59.32-1.58.16zm26.68 13.78c.25.1.34.22.3.45-.02.11-.06.22-.1.33-1.73 3.85-3.32 7.77-4.98 11.65l-1.05 2.49c-.06.15-.11.31-.17.46-.07.16-.17.24-.27.21s-.17-.16-.14-.31c.04-.21.09-.42.18-.61l3.96-9.33 2.18-5.11c.03-.07.07-.14.1-.22zm20.48-16.79l.81.15 2.1.28 2.83.37 2.75.38 3.31.46 2.46.33a2.34 2.34 0 0 1 .38.09.52.52 0 0 1 .19.14.19.19 0 0 1-.13.33c-.08.01-.16 0-.24 0l-2.97-.42-2.97-.43-3.02-.42-3.17-.42-2.15-.27c-.11-.01-.21-.03-.31-.06-.19-.05-.29-.19-.26-.33s.15-.2.38-.19z"/><path d="M70.97 82.2l-.02.05c-.48.31-.33.36-.94.1l-5.9-2.48-5.64-2.33-.67-.24a1.03 1.03 0 0 1-.28-.18c-.07-.07-.12-.18-.05-.27.05-.06.15-.11.23-.11a1.33 1.33 0 0 1 .34.05c.11.03.22.07.32.12l8.06 3.38 4.31 1.81c.08.03.16.07.25.11zm26.65-12.38c-.29-.19-.36-.36-.27-.65l.06-.16 2.39-5.5 1.75-4.07.64-1.65a6.08 6.08 0 0 1 .33-.68c.1-.18.25-.24.36-.19s.15.18.1.39l-.14.39-4.14 9.65-1.01 2.35-.06.13zm10.48 12.57c-.18 0-.29-.04-.34-.16-.04-.11 0-.21.12-.29.09-.06.19-.1.28-.14l2.56-1.03 1.2-.5 5.01-1.97 1.13-.49c.11-.05.21-.11.32-.13a.78.78 0 0 1 .34 0c.23.06.29.27.11.43-.12.11-.27.18-.42.24l-1.29.49-7.73 3.05-1 .41c-.11.05-.23.07-.3.09zm-48.46 3.15l1.13.16 2.97.42 3.38.48 3.34.46 1.56.21a1.55 1.55 0 0 1 .42.12c.13.06.17.17.14.28-.04.12-.15.18-.29.16l-2.75-.4-3-.42-3.39-.47-3.39-.42c-.11-.01-.21-.03-.31-.06-.17-.05-.24-.15-.23-.28.01-.14.12-.22.3-.24h.11zM73 52.86l.52-.23.11.25 3.2 7.86.37.86a1.76 1.76 0 0 1 .12.45c.02.16-.07.27-.19.31s-.22-.01-.32-.17c-.03-.05-.06-.1-.08-.15l-3.64-8.93c-.03-.07-.05-.15-.09-.25zm18.1 18.22l.12-.95.48-3.48.57-4.09.35-2.68c.01-.11.05-.22.1-.32.04-.09.13-.14.23-.1.07.03.15.1.16.16.03.19.07.39.04.58l-.25 1.7-.37 2.41-.37 2.83-.37 2.83-.09.83c-.03.24-.11.31-.35.31-.07 0-.15 0-.26-.02zm-31.23 40.41c.02-.21.14-.37.31-.49l.58-.42 6.2-4.61 1.29-.94c.22-.16.41-.35.63-.51.12-.09.24-.17.37-.23.14-.06.29.02.35.15.05.11.03.19-.1.29-.12.1-.25.18-.38.27l-8.03 5.99-.65.53c-.1.07-.2.14-.32.18-.15.06-.25-.03-.26-.21zm68.74-16.18l-.07.46h-.23l-4.88-.62-4.19-.56-1.75-.25c-.11-.02-.23-.06-.32-.12-.19-.14-.15-.38.08-.43.17-.04.36-.04.54-.02l2.72.45 2.68.37 3.27.43 2.02.26c.03 0 .06.01.13.03zm-46.15 17.61l-.41 1.4-1.63 5.92-1.05 3.71-.09.36c-.02.08-.06.15-.1.22-.05.08-.13.13-.23.11-.11-.02-.18-.09-.2-.19a.97.97 0 0 1 0-.34c1.01-3.26 1.86-6.56 2.75-9.84.1-.39.26-.76.39-1.14.06-.18.19-.23.36-.22h.18zm-12.27-8.77c-.17 0-.28-.04-.33-.16s.03-.2.12-.27c.06-.05.13-.1.2-.15l7.77-5.76 1.05-.85c.06-.05.11-.1.18-.13.1-.05.21-.05.3.04s.09.2.02.29a1.43 1.43 0 0 1-.27.28l-1.96 1.49-5.08 3.77-1.3 1.05-.4.29c-.1.06-.23.09-.3.11zm33.7 22.12l-.48.18-.09-.17-3.2-7.89-.26-.58c-.05-.11-.08-.23-.1-.35s.02-.23.14-.28.24-.04.32.06c.08.09.15.2.2.31l.3.75 3.07 7.7.1.28zM78.91 72.39l-.06.04c-.41.1-.43.09-.65-.28l-4.35-7.34-1.39-2.29c-.1-.17-.16-.36-.23-.54a.2.2 0 0 1 .09-.26c.11-.06.21-.02.29.06.05.05.09.12.13.18l6.05 10.2c.04.08.09.15.13.23zm-7.96 24.97l-.33.14-8.67 3.49-1.27.53c-.1.04-.22.07-.33.08-.17 0-.25-.12-.18-.28.03-.08.09-.15.16-.21s.17-.1.26-.14l4.53-1.79 3.84-1.53.95-.4a1.03 1.03 0 0 1 1.05.11zm29.17 1.59l.16-.11c.15-.12.25-.13.4-.01.1.08.19.18.29.26l2.43 1.96 5.13 4.06.95.75c.16.14.28.32.4.49.03.04.02.14-.02.18s-.13.06-.2.06c-.06 0-.12-.05-.18-.08l-.44-.31-6.98-5.61-1.84-1.52c-.02-.02-.04-.05-.11-.11zm8.2 25.25l-.34.18-.14-.23-3.24-5.94-1.2-2.12-.29-.46c-.13-.21-.13-.4 0-.49s.3-.02.45.19l.12.19 4.58 8.54c.02.04.03.07.06.14zm19.05-23.39l-.12.38h-.1l-5.3-1.5-2.69-.78c-.2-.06-.4-.1-.6-.14-.16-.04-.32-.09-.41-.24-.06-.1-.08-.2-.02-.3.06-.11.16-.13.28-.11l.31.07 8.35 2.51.3.11zM67.32 68.45c.13.06.24.09.33.15.08.05.16.12.22.19l4.83 4.74 1.57 1.56c.09.09.17.2.25.31.06.09.09.2 0 .29-.09.08-.19.04-.27-.02a.69.69 0 0 1-.13-.11l-2.69-2.53-3.57-3.5-.52-.52a1.71 1.71 0 0 1-.18-.2c-.06-.07-.12-.17-.05-.25.05-.06.15-.08.22-.12zm25.61 55.6s-.03.12-.06.18c-.1.17-.3.17-.38-.02a1.24 1.24 0 0 1-.09-.38l-.58-4.83-.36-2.95-.11-.88.01-.29c.02-.1.09-.18.2-.19s.2.02.25.12c.04.08.08.17.09.25l.35 2.73.46 4.48.22 1.66c0 .03 0 .06.02.13zm-43.26-39.2l.06-.54.91.11 2.83.37 2.95.37c.47.06.95.07 1.42.11.18.02.36.05.53.09a.65.65 0 0 1 .22.11c.09.06.13.15.11.26s-.09.18-.19.2a1.29 1.29 0 0 1-.34 0l-4.36-.56-4.05-.5c-.02 0-.03-.01-.08-.03zm44.16-35.19l.56.07-.09.84-.38 3.2-.44 3.61c-.02.13-.06.26-.11.38a.55.55 0 0 1-.15.19c-.14.1-.29.04-.32-.13a1.15 1.15 0 0 1 0-.37l.39-3.45.47-3.76.07-.6zm18.79 37.09c0 .07.01.11.02.15.03.35-.02.4-.36.43l-2.59.3-2.29.28-3.31.47-.46.06h-.2c-.1-.02-.19-.07-.2-.18s.03-.21.13-.24c.17-.06.34-.11.52-.14l2.88-.37 2.54-.33 2.95-.37c.12-.02.24-.02.39-.04zm-15.63-7.57l.12-.17 5.17-6.61c.08-.1.12-.22.23-.31.11-.08.18-.21.27-.31.27.27.29.46.08.74l-4.72 6-.31.41c-.14.22-.33.31-.58.27-.07-.01-.15-.01-.26-.02zM85.95 63.09l-.06.31c-.03.09-.09.15-.2.16-.1 0-.18-.05-.21-.14a.96.96 0 0 1-.07-.28l-.23-1.9-.28-2.35-.29-2.91c-.02-.15-.07-.3-.08-.46-.02-.13-.02-.26 0-.39.01-.1.08-.18.19-.2.11-.03.19.04.25.12.13.19.17.41.19.63l.3 3.04.4 3.69.1.69zm7.9 7.18l.2-.84.88-2.92.93-3.24c.07-.24.11-.48.17-.72.03-.1.07-.2.12-.29.06-.09.16-.15.28-.11.11.04.18.13.19.24 0 .1 0 .21-.04.31l-1.05 3.61-.84 2.95-.2.81c-.04.13-.09.26-.16.38-.07.13-.18.17-.29.13-.12-.04-.15-.14-.15-.26v-.07z"/><path d="M66.79 68.12s-.05.13-.11.15c-.07.03-.17 0-.25-.03-.06-.03-.12-.09-.17-.14l-1.72-1.69-3.58-3.52-.51-.5a.79.79 0 0 1-.18-.29c-.02-.06 0-.15.03-.2.05-.08.15-.08.22-.03.13.08.27.16.38.27l.87.84 4.59 4.46.29.27c.09.1.16.21.15.42zm23.43 35.46c.05 0 .09-.02.13-.02.22-.02.29.03.32.24.04.23.05.47.08.71l.46 4.45.32 3.4c0 .1 0 .21-.03.32-.04.16-.2.19-.29.05-.06-.08-.09-.18-.11-.27l-.18-1.36-.34-3.55-.36-3.7v-.28zm17.59-45.73c-.03.07-.08.18-.14.28l-1.91 3.35-1.54 2.6c-.06.11-.13.21-.21.31-.09.12-.24.13-.37.04-.11-.07-.13-.14-.06-.3l.38-.74 2.74-4.66.5-.81c.09-.12.2-.24.33-.31.15-.08.28.02.27.24zm-1.58 14.63l.18-.19 5.12-5.14.3-.32c.09-.1.2-.17.34-.17.16 0 .26.1.23.25-.02.11-.08.22-.15.3l-.44.43-4.35 4.34c-.1.1-.19.21-.28.31-.09.09-.17.18-.27.25-.25.19-.41.17-.68-.06zm-23.32-6.39c-.02.09-.03.18-.07.26-.08.15-.24.16-.34.02a.72.72 0 0 1-.09-.2c-.5-2.06-1.2-4.07-1.81-6.1l-.2-.78c-.02-.07 0-.16.01-.24.03-.1.1-.17.21-.19s.2.04.25.13c.07.14.14.28.18.43l.94 3.28.79 2.82.13.58zm-11.6 1.01c0 .18-.13.27-.29.24-.15-.03-.26-.14-.35-.25l-.43-.57-2.26-2.86-1.52-2.09c-.03-.04-.06-.08-.07-.13-.03-.09-.04-.19.05-.24a.36.36 0 0 1 .23-.02c.08.02.15.07.21.13.15.16.32.31.44.49.41.64.91 1.23 1.37 1.83l1.66 2.2.76.91c.1.11.2.22.2.36zm40.14-5.61s-.05.15-.11.23l-.43.57-2.5 3.29-.74.95c-.09.11-.19.2-.3.28-.1.07-.22.09-.32.01s-.1-.19-.05-.29a2.93 2.93 0 0 1 .21-.39l.7-.92 2.9-3.79c.09-.12.19-.23.34-.26.18-.03.31.08.31.32zm8.27 41.89a1.43 1.43 0 0 1-.21-.06l-5.83-2.38c-.2-.09-.41-.16-.62-.24-.07-.03-.14-.05-.2-.09-.12-.08-.16-.22-.11-.35s.17-.2.32-.18a.63.63 0 0 1 .23.08l6.14 2.67.4.19c.09.04.19.09.16.21s-.15.14-.28.15zm-19.96 12.87c-.01.12-.06.22-.18.26-.11.04-.21 0-.28-.1-.04-.05-.07-.11-.1-.17l-2.31-5.57-.46-1.06c-.05-.12-.09-.25-.04-.38.05-.14.18-.19.29-.11s.21.19.27.31c.1.19.17.39.25.59l.35.95 1.74 4.23.33.71c.05.11.08.23.12.35zM68.12 77.51c-.55.36-.54.26-.92.03l-4.66-2.75-.85-.44c-.11-.06-.23-.13-.32-.22-.11-.1-.13-.26-.07-.36.06-.11.18-.15.35-.09.21.08.42.18.62.3l2.54 1.55 3.06 1.83.25.16zm57.41-2.54c.1.01.21.02.25.13s0 .2-.08.26a1.51 1.51 0 0 1-.26.18l-.65.29-3.58 1.45-.8.33-.73.21a.41.41 0 0 1-.19.01c-.2-.03-.27-.22-.13-.36.08-.09.19-.16.3-.21l1.35-.58 3.59-1.41.65-.23c.09-.03.19-.04.29-.06zm-37.04 49.61l-.04 2.95v.57c-.01.21-.11.33-.23.33s-.2-.11-.23-.3c0-.06-.01-.13-.01-.2l-.01-3.44.04-2.88v-.78c0-.14.03-.28.08-.4a.29.29 0 0 1 .2-.14c.1-.02.17.07.19.16.03.13.06.27.05.41-.07 1.17-.08 2.34-.04 3.75zM50.53 79.9l.11-.4 1.6.44 1.28.35 1.04.2 2.1.52 1.08.23c.16.04.31.1.46.17.14.08.19.21.16.33s-.14.2-.3.2a1.61 1.61 0 0 1-.44-.06l-5.32-1.51-1.52-.4-.24-.07zM89.1 58.08v3.66l-.01.29c0 .1-.05.19-.16.22-.09.02-.23-.08-.26-.19-.02-.05-.02-.11-.02-.17l.02-7.53c0-.13.02-.26.03-.39 0-.02 0-.05.01-.07.03-.11.07-.23.21-.24.1-.01.2.09.22.25s.04.33.03.49l-.03 1.52v2.14h-.03zm-5.85 19.15l-.11-.21-2.45-5.64-.48-1-.25-.59a.47.47 0 0 1-.03-.26c.01-.07.07-.15.13-.19.08-.06.18-.02.24.06s.11.16.15.25l2.92 6.64c.09.19.1.37.01.57-.05.11-.08.23-.13.37zm13.76-7.17c.26.14.35.29.29.54-.04.16-.1.31-.17.46-.51.94-.89 1.93-1.27 2.93l-1.02 2.5-.23.57a.95.95 0 0 1-.17.27c-.14.14-.32.07-.34-.12a.88.88 0 0 1 .06-.36l.43-1.02c.48-.99.84-2.03 1.26-3.04l1.12-2.62c.01-.03.03-.06.05-.1zm17 17.02s-.02-.06-.02-.08c-.08-.42.11-.49.42-.5.45-.02.9-.09 1.34-.15l3.09-.42 1.22-.17c.18-.02.36-.02.54-.03.06 0 .12 0 .17.02.17.04.26.12.25.23-.01.14-.13.18-.24.2l-1.02.14-3.26.47-2.41.31c-.02 0-.03 0-.07-.01zm1.95 24.5c-.17-.01-.32-.1-.46-.22l-2.56-2.16-1.79-1.47-.46-.44a.36.36 0 0 1-.07-.1c-.08-.14-.09-.25 0-.31.1-.08.21-.04.29.03l1.29 1.02 3.23 2.58c.21.15.4.32.59.49.07.06.14.14.19.22.11.19 0 .34-.23.34zm.16-13.53l-.28-.07-5.16-1.53-.76-.19a2.05 2.05 0 0 1-.41-.16.42.42 0 0 1-.17-.2c-.07-.16.03-.3.21-.3.07 0 .15.02.22.05l6.27 1.88a.92.92 0 0 1 .28.14c.09.06.15.16.11.28-.05.13-.16.12-.3.12zM113.15 90h3.15c.17 0 .34.03.51.05.05 0 .1.02.14.04.14.06.21.15.19.25-.01.11-.09.17-.25.19h-.12l-3.07-.09c-1.2-.01-2.39 0-3.59.01-.13 0-.26 0-.39-.01a.28.28 0 0 1-.19-.43c.04-.05.14-.08.21-.08l.93.01h2.48v.05zm-.53-23.76s.04-.16.1-.24c.07-.11.16-.21.26-.3l3.12-2.96c.22-.21.42-.46.64-.68.13-.13.29-.24.44-.34.1-.06.22-.05.31.05.08.09.07.2-.02.34a.75.75 0 0 1-.15.16l-2.73 2.63-1.38 1.4c-.09.09-.18.17-.29.22-.18.08-.31-.03-.31-.28zM90.04 78.7l.26-1.89.42-3.02.15-1.29c0-.06.02-.11.03-.17.07-.32.21-.42.58-.39 0 .04.02.07.01.11l-.71 4.99-.16 1.24c-.04.41-.12.48-.58.42zm11.42 2.01c-.27 0-.38-.18-.28-.37.04-.08.12-.16.2-.21l2.79-2.02 2.35-1.76c.07-.05.15-.11.23-.13.18-.05.29.09.23.26-.03.08-.09.16-.15.22-.09.09-.19.18-.3.26l-4.33 3.26-.43.33c-.11.08-.24.13-.31.16zm-48.89 24.03l-.19-.47.21-.1 5.19-2.12c.07-.03.16-.06.24-.06.21-.01.33.15.22.34-.05.09-.13.16-.21.23-.06.05-.14.08-.22.11l-4.45 1.77-.78.31zm43 12.58c.37-.28.45-.12.53.18l1.39 5.5.16.72c.01.07.02.15.02.22 0 .12 0 .24-.13.29-.08.04-.18-.05-.25-.22-.03-.08-.05-.15-.07-.23l-1.47-5.79-.17-.67zm18.56-41.62c.1-.09.17-.16.26-.22l1.1-.64 3.39-1.9c.2-.11.41-.21.64-.23.1 0 .21-.03.25.09.05.12-.02.21-.12.27-.15.1-.31.18-.47.27l-4.12 2.4a2.15 2.15 0 0 1-.26.14c-.25.13-.34.12-.55-.07-.03-.03-.06-.05-.13-.12zm2.42 42.53l-.33.31c-.06-.05-.11-.1-.16-.15l-3.95-3.92-.44-.4c-.09-.08-.17-.18-.24-.28-.07-.12-.04-.26.04-.34.1-.09.22-.07.32 0 .09.06.17.12.25.2l4.41 4.47.1.11zM68.59 55.18l.35-.21c.06.09.1.17.14.25l2.35 4.33.3.51c.08.15.14.3.09.47a.32.32 0 0 1-.14.18c-.09.05-.18 0-.23-.09l-.38-.6-1.73-3.32-.74-1.52zm59.39 24.73l.09.34c-.08.03-.15.08-.22.1l-4.48 1.21-1.4.37c-.1.03-.21.04-.31.05-.11 0-.21-.03-.25-.16-.03-.12 0-.24.11-.3a1.28 1.28 0 0 1 .34-.14l5.42-1.33.43-.11a2.03 2.03 0 0 1 .29-.04zm-20.5 18.29l-.26-.09-1.99-.79-2.42-1.03-.86-.37c-.16-.07-.19-.13-.16-.25.04-.13.17-.23.29-.22.06 0 .11.02.16.05 1.32.68 2.75 1.11 4.11 1.69l.95.41c.12.06.23.16.33.25.06.06.08.15.02.22-.05.06-.13.09-.18.13zm-30.11 11.33l-.73 1.25-2.29 3.99-.25.4c-.04.06-.09.12-.15.17-.08.07-.18.1-.27.05-.1-.06-.1-.17-.07-.26a2.09 2.09 0 0 1 .19-.4l.64-1.02.79-1.39 1.24-2.21.13-.24c.19-.36.32-.42.77-.33zM62.32 90.4c-.04-.31.06-.47.33-.52.09-.02.18-.02.27-.02h5.2.1c.21 0 .26.03.27.2 0 .2-.08.31-.26.32-.17 0-.34-.02-.52-.01l-5.12.05h-.26zm35.97-33.94l-.11.48-1 3.44-.25.75c-.04.1-.08.2-.15.28-.05.05-.15.09-.21.08-.06-.02-.13-.1-.15-.17-.02-.08-.01-.18 0-.26l.53-1.97.73-2.48c.04-.12.08-.25.15-.36.08-.14.22-.19.33-.15.09.04.15.17.14.36zm9.13 23.26c-.11.13-.18.24-.27.32-.11.1-.27.08-.36 0s-.09-.23 0-.36c.12-.16.27-.24.48-.16.05-.17.2-.23.34-.3l.83-.42 3.67-2.01c.07-.04.15-.07.22-.1.14-.04.25 0 .29.1s0 .21-.11.3l-.1.06-2.49 1.35-1.97 1.11c-.18.1-.36.17-.54.11zm-5.21 5.1c-.18-.04-.28-.09-.31-.2-.04-.12.02-.23.17-.32.04-.03.09-.04.13-.06l.18-.08 3.54-1.47.54-.23c.12-.05.24-.1.37-.12.15-.03.29.06.34.19.04.13 0 .24-.15.33l-.25.11-3.95 1.62c-.19.1-.41.15-.62.23zm26.82 5.51v.37l-.22.01-5.46.03c-.17 0-.34 0-.51-.03-.18-.03-.26-.13-.26-.28 0-.13.11-.25.27-.27.15-.02.29 0 .44 0 .18 0 .36.03.54.04l4.97.11.23.01zm-51.27-26c0-.16.02-.27.14-.31s.21.04.27.13c.07.12.14.24.19.37l1.47 3.54c.09.23.15.47.22.7.02.05.02.11.01.17-.02.17-.14.23-.3.17-.17-.07-.25-.21-.31-.37l-.25-.67-1.12-2.72c-.11-.26-.19-.54-.28-.81-.03-.08-.03-.16-.04-.19zm49.29 20.6h.64c.04 0 .09 0 .12.02.06.04.16.09.17.15s-.05.16-.11.2c-.1.06-.22.11-.34.12l-1.73.2-2.49.29-.34.02c-.15 0-.24-.09-.27-.21-.02-.11.04-.22.19-.28.13-.05.27-.08.4-.1l3.27-.39c.17-.02.34-.02.48-.03zM65.39 96.07l.03.14c.02.07.08.16.06.22-.03.07-.12.13-.19.18-.03.02-.08.03-.12.04l-2.71.73-2.23.61-.24.05c-.15.02-.26-.04-.29-.14-.03-.12.04-.21.13-.27s.19-.1.29-.12l2.68-.72 2.41-.68.16-.03zm28.54 7.31s.02-.03.03-.03c.39-.14.42-.12.58.26l2 4.92.07.18c-.32.14-.51.07-.63-.23l-1.99-4.98c-.02-.04-.03-.09-.04-.12zm5.52 4.85l.1.16 2.88 5 .24.43c.04.07.08.15.08.23 0 .07-.03.17-.08.21s-.17.03-.22 0c-.08-.05-.14-.14-.18-.22L99.41 109c-.01-.02-.03-.04-.04-.06-.18-.3-.17-.38.08-.7z"/><path d="M96.02 99.18s.13.06.19.12c.08.08.16.17.22.26l2.37 3.17.42.61c.04.06.07.13.1.2.03.09.05.18-.04.25-.09.06-.17.03-.25-.04l-.12-.12-.51-.63-2.48-3.21c-.07-.1-.15-.2-.19-.31-.06-.17.07-.31.29-.29zM85.73 64.96s0-.11.02-.17c.02-.05.06-.11.1-.12.05 0 .14.02.17.06a.96.96 0 0 1 .12.32l.09.73.39 3.57.15 1.49c0 .09.03.18.04.27.01.14-.06.24-.17.26-.12.02-.22-.04-.27-.16-.02-.05-.02-.11-.03-.17l-.36-3.82-.23-1.95-.02-.29zm-2.05 37.55l-2.49 5.63c-.23-.1-.31-.21-.28-.44.02-.12.06-.24.11-.35l1.99-4.39c.16-.35.26-.42.67-.45zM52.1 74.86l.18-.46a.81.81 0 0 1 .11.03l3.72 1.55c.13.05.25.13.36.2.06.04.11.1.15.16.06.08.09.16.03.25s-.15.13-.26.11c-.06 0-.11-.03-.16-.05l-4.02-1.71c-.04-.02-.07-.04-.11-.07zm25.73 6.67a4.43 4.43 0 0 0-.32-.24l-3.37-2.56c-.12-.09-.23-.19-.32-.3-.15-.19-.19-.4-.13-.67l.21.15 3.52 2.68c.03.02.06.05.1.07.32.19.39.48.31.86zm-18.77 8.39c0 .34-.09.47-.38.49-.15.01-.29 0-.44 0l-3.15.06-.86.01c-.14 0-.28 0-.42-.04-.06-.01-.16-.07-.17-.11 0-.07.04-.16.09-.21.12-.11.28-.13.44-.13h.84l3.74-.09h.31zm16.04 1.49c.07.37-.02.49-.35.52l-2 .21-2.02.28-.68.09c-.09 0-.18-.01-.26-.04-.09-.02-.17-.09-.15-.19.01-.07.07-.16.12-.19.12-.06.26-.09.4-.11l4.1-.49.85-.1zm50.53 14.05l-.22.49-.25-.1-2.24-.96-1.08-.4-.42-.2c-.06-.03-.11-.1-.16-.15-.07-.09-.11-.19-.04-.3.06-.1.17-.13.28-.1.09.02.18.04.26.08l3.69 1.56c.05.02.1.05.19.08zm-13.51-5.24c-.08-.03-.22-.06-.35-.12-.96-.48-1.97-.85-2.97-1.23-.13-.05-.26-.11-.38-.17-.06-.03-.12-.06-.17-.1-.17-.12-.22-.26-.15-.4.08-.14.23-.18.43-.09l2.61 1.08c.35.15.68.35 1.02.54a.67.67 0 0 1 .2.21c.09.15.01.27-.24.28zm-32.47 1.81l-.17.23-2.7 3.38c-.08.1-.15.21-.23.32-.03.05-.07.1-.11.13-.12.1-.28.05-.29-.11a.83.83 0 0 1 .07-.38c.07-.14.18-.27.28-.4l1.15-1.38 1.01-1.36c.1-.13.19-.27.31-.38.21-.21.38-.22.69-.05zm8.91 15.37v1.84c0 .08 0 .16-.02.24-.03.14-.11.22-.22.23s-.21-.05-.26-.19a.93.93 0 0 1-.05-.29l.05-3.84c0-.11.01-.22.05-.31.03-.07.09-.14.16-.16.09-.03.17.03.22.12a.44.44 0 0 1 .06.16c.01.11.03.21.02.32l-.04 1.87zm-27.28.17l-.31-.31.6-.63c.14-.14.26-.28.34-.48.05-.12.16-.23.25-.33l1.93-1.86.31-.31a.44.44 0 0 1 .18-.12c.11-.04.23.02.23.14a.69.69 0 0 1-.08.32c-.06.1-.16.18-.25.27l-1.5 1.42c-.3.29-.56.62-.84.93l-.86.95zM71.4 82.41l.44.14 2.33.92 1.22.46a.94.94 0 0 1 .26.14c.1.08.11.21.07.31-.06.12-.16.13-.27.11-.06 0-.11-.02-.16-.05-.92-.44-1.9-.73-2.84-1.09l-.98-.4a.79.79 0 0 1-.23-.14c-.08-.07-.14-.17-.08-.28.05-.11.15-.11.26-.12zm34.37-14.22c.28 0 .37.12.3.3-.03.07-.08.13-.12.18l-1.44 1.84c-.15.19-.27.41-.42.61-.12.15-.26.3-.4.42-.09.08-.2.11-.32.04-.1-.06-.15-.18-.08-.33.09-.2.2-.4.33-.57.19-.26.42-.48.61-.74l.97-1.3c.07-.1.14-.21.24-.28.12-.09.27-.14.34-.18zm-22.41 60.42l-.51-.08v-.13l.51-3.23.08-.56a1.51 1.51 0 0 1 .1-.3c.04-.09.12-.16.23-.14.12.02.19.11.2.22a1.93 1.93 0 0 1 0 .34l-.2 1.49-.35 2.16c-.01.07-.03.14-.06.24zm20.42-23.5l.18.19 2.44 2.64.64.68c.05.05.1.11.13.18.06.09.06.19-.02.27s-.18.1-.27.05a.96.96 0 0 1-.25-.2l-1.84-2.01-.91-.97a.51.51 0 0 1-.16-.42v-.37c.02 0 .04-.02.06-.03zm-34.42-20.3l-.23-.05-3.6-.92-.43-.1c-.19-.05-.29-.18-.27-.3.03-.12.18-.21.36-.21.08 0 .16.02.24.04l3.21.84c.11.03.23.04.34.07.37.09.44.21.39.62zm-.25 38.78l-.45-.27.1-.19 1.79-3.03c.13-.21.29-.28.44-.19.16.09.19.29.06.5l-.94 1.56-.87 1.43c-.03.06-.07.11-.13.19zm10.94-67.68c-.01.08-.01.14-.03.2-.04.11-.1.21-.24.22-.12.01-.2-.06-.25-.16-.05-.12-.1-.24-.13-.37l-.69-2.61-.17-.57c-.02-.1-.04-.21-.02-.31.01-.07.09-.15.15-.17.06-.01.16.03.21.09a.87.87 0 0 1 .16.3l.39 1.34.54 1.73.08.31zm3.76-6.14l.59-.07.1.74.27 2.44c.01.12 0 .25-.02.37-.03.16-.14.23-.27.23s-.22-.07-.26-.22c-.02-.08-.03-.16-.04-.24l-.23-2-.13-1.25zm-8.29 45.36c.03.06.07.12.1.17.08.2.03.31-.17.38l-2.47.9-.87.34c-.11.04-.22.07-.33.08-.1.01-.19-.04-.23-.15-.04-.1 0-.18.08-.24.1-.07.2-.14.31-.19l3.41-1.25c.05-.02.11-.03.17-.05zm18.6 17.15h.18c.26 0 .35.07.41.33.04.15.05.31.1.46l.51 1.77.44 1.48c.04.12.05.26.05.39 0 .1-.03.2-.15.23-.11.03-.2-.03-.25-.12-.06-.1-.11-.21-.13-.31-.25-1.24-.69-2.43-1.02-3.64l-.15-.57zm26.15 1.94l-.35.42-.21-.15-1.68-1.32-.63-.47c-.12-.1-.24-.22-.33-.36s-.07-.28.03-.36c.11-.09.23-.07.34 0 .1.06.2.14.3.21l2.41 1.91c.04.03.07.07.12.11zM51.03 100.4l-.12-.4c.06-.02.1-.05.15-.06l3.14-.83c.17-.04.34-.06.51-.08.13-.02.24.04.33.14.11.13.08.26-.07.34-.06.03-.12.04-.19.06l-3.62.84c-.03 0-.06 0-.12.01zm21.42 16.41s.04-.09.07-.13l.28-.34.28-.4c.07-.11.15-.2.28-.21.16-.02.28.09.25.25a1 1 0 0 1-.13.34l-.62 1.04-.74 1.22-.24.4c-.06.08-.13.15-.2.21-.11.08-.25.09-.32.03-.1-.09-.08-.2-.04-.3.08-.19.18-.37.29-.54l.81-1.35c.04-.06.06-.12.09-.19-.02 0-.03-.01-.05-.02zm44.1-10.08c0 .12-.1.21-.24.18-.05-.01-.11-.04-.16-.07l-1.23-.77-2.2-1.35c-.21-.13-.22-.3-.03-.41a.36.36 0 0 1 .23-.02c.08.02.16.09.23.13l3.16 1.96c.13.08.22.17.23.35zm-27.46-42.5c0 .06.01.13.02.19l.04 3.82v.3c-.02.14-.09.2-.22.22-.19.02-.25-.04-.26-.25l-.02-2.36-.03-1.23c0-.11 0-.23.03-.34.05-.25.15-.33.45-.33zm18.38 44.95s.12.04.19.09c.11.08.22.17.32.27l2.22 2.23c.08.08.16.17.22.26s.07.19-.01.27-.17.09-.27.03c-.1-.07-.21-.13-.29-.22l-2.43-2.4a.96.96 0 0 1-.18-.23c-.07-.14.04-.29.23-.29zm-19.38 3.37l-.05-1.79c0-.26.1-.38.32-.35.11.02.18.07.19.19v.07l.06 2.9c0 .2.03.39.03.59 0 .15-.03.3-.16.4-.06.05-.17.08-.24.07-.1-.01-.13-.11-.13-.21v-.32-1.55zm32.32-3.19l-.27-.1-1.26-.72-1.33-.79c-.18-.1-.33-.22-.38-.43-.02-.09-.05-.2.05-.27.09-.08.19-.02.27.03l1.37.83.97.58c.22.14.42.31.63.47.04.03.08.07.1.11.02.06.04.14.02.18-.03.05-.11.08-.16.12zm-15.89-56.93l.51.22-.09.24-1.01 2.37a.97.97 0 0 1-.16.28c-.06.07-.15.14-.23.17a.2.2 0 0 1-.29-.22c0-.11.03-.23.08-.33l1.13-2.64c0-.02.03-.04.06-.09zM60.09 72.87c-.02.25-.17.37-.36.32-.06-.02-.13-.04-.18-.07L57.65 72c-.13-.08-.26-.18-.37-.28s-.11-.21-.03-.35c.06-.1.23-.19.32-.16a.72.72 0 0 1 .2.09c.55.44 1.19.75 1.79 1.12.14.09.28.17.41.28.07.06.11.15.13.19zm64.08-2.81l.21.39c-.06.04-.11.08-.17.11l-2.45 1.36c-.16.09-.34.17-.51.25-.08.04-.17.05-.26.07-.09.01-.2.01-.23-.09-.02-.08 0-.18.04-.25.03-.07.11-.12.17-.17l.44-.26 2.6-1.34c.04-.02.07-.04.14-.07zM97.62 82.92l.21-.17 2.39-1.77c.13-.1.28-.17.43-.24.11-.05.21-.03.29.07.07.09.05.21-.04.31-.06.06-.12.11-.19.15l-2.4 1.76c-.19.14-.27.15-.47.03l-.22-.14zm-37.13-.93l.34.07 2.02.53c.11.03.22.07.32.13.11.06.17.16.15.29s-.11.22-.23.22a1.58 1.58 0 0 1-.43-.05l-.84-.27-1.24-.29c-.12-.03-.24-.06-.35-.11-.21-.1-.22-.3-.02-.42.09-.06.21-.08.29-.1zm52.94 2.02c-.21 0-.32-.06-.34-.19-.02-.12.07-.24.21-.3.05-.02.09-.03.14-.04l2.88-.7c.06-.01.11-.03.17-.04.18-.03.33.04.36.17.04.13-.06.25-.25.3l-1.55.39-1.43.36c-.08.02-.16.03-.2.03zm-19.96 44.81l-.5.06-.06-.45-.31-2.63a.98.98 0 0 1 .03-.34c.02-.1.09-.16.19-.17.11-.01.2.03.24.13.04.09.07.19.08.28.03.98.22 1.95.33 2.92 0 .06 0 .11.01.2zm-25.63-18.47c.18 0 .28.1.26.25-.01.09-.05.2-.11.27a1.66 1.66 0 0 1-.33.32c-.52.35-.96.8-1.38 1.26l-.3.32c-.06.06-.12.12-.19.15s-.17.05-.22.01c-.05-.03-.07-.14-.06-.21.02-.1.06-.21.13-.29l.5-.6 1.26-1.24c.13-.13.27-.24.44-.25zm35.75-34.59l-.07-.35a.42.42 0 0 1 .13-.38l1.97-1.96c.09-.09.21-.16.32-.22.09-.05.2-.03.27.05s.05.17 0 .25c-.04.07-.1.13-.16.19l-2.27 2.24-.18.17z"/><path d="M70.75 75.6c.13.07.25.11.35.19l1.02.77 1 .76c.11.08.21.19.3.29.09.11.08.22 0 .29-.08.08-.18.07-.27.02-.06-.03-.13-.08-.19-.12l-2.05-1.53c-.12-.09-.24-.18-.33-.29-.04-.05-.06-.16-.03-.22.02-.06.12-.09.2-.15zM56.18 99.14c-.11-.02-.19-.03-.26-.06-.09-.03-.16-.09-.16-.19s.07-.16.15-.2c.04-.02.08-.03.11-.04l1.88-.57c.24-.07.48-.11.72-.16.09-.02.18-.01.26.01.06.02.14.08.15.14 0 .07-.04.16-.09.21-.06.05-.14.08-.22.11l-.97.28-1.15.36-.43.12zm-1.21 10.35l-.24-.41a1.45 1.45 0 0 1 .19-.12l1.67-.99c.12-.07.24-.14.38-.18.11-.03.24-.04.36-.03.21.03.26.2.12.35a.7.7 0 0 1-.17.13l-2.22 1.22c-.02.01-.05.01-.08.02zm15.95-1.78s-.02.1-.06.15a1.79 1.79 0 0 1-.2.28c-.54.59-1.12 1.13-1.74 1.63a.95.95 0 0 1-.27.17c-.04.02-.13.02-.15-.01-.04-.04-.06-.12-.04-.17.02-.07.07-.15.13-.21l1.8-1.88a.96.96 0 0 1 .23-.18c.16-.08.31.02.3.22zm30.15-39.32l.35-.62.92-1.6c.06-.1.13-.19.21-.27.07-.07.18-.09.27-.03.1.06.14.15.12.25-.03.12-.07.25-.14.36l-.77 1.25-.29.51c-.15.3-.26.34-.56.2-.03-.01-.05-.03-.11-.06zm19.14 13.45c.25 0 .36.06.37.19.02.14-.07.24-.27.29l-2.46.6c-.22.04-.33 0-.38-.12-.05-.13.05-.29.23-.35l.66-.18 1.67-.4c.07-.02.15-.02.18-.03zM86.6 73.21c.28-.02.41.05.49.28.04.12.06.26.07.38l.1 1.87c0 .11.02.21.04.32.04.24-.06.32-.29.24-.06-.02-.12-.06-.18-.09l-.23-3.01zm27.51-15.1l-.74.99-.54.73c-.08.1-.16.21-.26.3-.16.14-.36.07-.41-.14-.02-.08-.01-.17.01-.24a.77.77 0 0 1 .14-.25l1.41-1.68.38.3zm-14.45-6.49l-.06.22c-.24.7-.46 1.42-.59 2.15-.02.1-.04.2-.08.28-.05.08-.12.16-.2.2-.16.09-.3 0-.29-.19 0-.1.03-.19.06-.29l.52-1.94c.03-.12.06-.24.11-.35.03-.08.09-.16.15-.22.07-.07.17-.13.26-.06.06.05.1.13.14.19zm-13.14 52.16l.23-1.63c.02-.11.02-.23.04-.34.02-.09.04-.18.08-.25.06-.11.16-.14.27-.11s.17.1.18.21v.2l-.22 1.45c-.02.11-.01.23-.02.34 0 .07-.01.15-.03.22-.05.17-.21.26-.35.23-.12-.03-.16-.12-.16-.32zm23.96-1.06l.16.07 1.2.76a2.09 2.09 0 0 1 .29.23.53.53 0 0 1 .13.23c.05.16-.06.28-.22.25-.06 0-.13-.03-.18-.07l-1.44-.89a1.15 1.15 0 0 1-.17-.14c-.08-.07-.15-.16-.1-.28.04-.1.17-.18.34-.17zm8.74-12.6h.84c.16 0 .31.04.42.16.13.15.07.32-.13.36h-.1-1.65c-.11 0-.21-.02-.32-.04-.06 0-.11-.03-.16-.06-.09-.05-.14-.12-.12-.22s.1-.15.19-.17c.11-.02.23-.02.34-.02h.69zm-46.77 16.12c-.18 0-.29-.15-.22-.32.03-.08.09-.16.15-.22l1.12-1.03a1.42 1.42 0 0 1 .28-.2c.12-.06.25-.03.31.05.07.1.05.21-.02.3a2.85 2.85 0 0 1-.23.26l-1.02.96c-.11.1-.22.2-.38.2zm-8-48.15l.38.52.57.77a1.77 1.77 0 0 1 .21.41c.03.08.02.18-.01.26-.05.16-.18.19-.31.08-.03-.03-.06-.06-.08-.09l-1.19-1.58c.1-.16.26-.25.42-.37zm12.42 30.46l-1.04-.17-.82-.13c-.19-.03-.27-.12-.25-.27.02-.14.13-.25.3-.23.25.02.5.08.75.12l1.16.18c.23.03.28.08.27.24-.02.18-.12.26-.32.27h-.05zm32.27-33.83l.37.22c-.03.07-.06.13-.09.18l-.58.97-.39.68a1.79 1.79 0 0 1-.2.28c-.07.07-.16.08-.25.04-.08-.04-.11-.12-.1-.21.01-.1.03-.2.07-.28a2.12 2.12 0 0 1 .21-.36l.87-1.37.1-.14zM61.92 89.91c.06.34-.03.48-.35.53-.09.01-.18 0-.27 0-.44 0-.88 0-1.32-.01h-.05c-.11 0-.24.02-.28-.14-.04-.15.04-.31.18-.37.07-.03.16-.05.24-.05h1.81c.01 0 .03.01.04.02zm-12.06 5.17l-.08-.58 1.15-.16.54-.04c.21 0 .34.12.35.28 0 .15-.11.27-.32.3l-1.51.19h-.12zm7.82 18.42l-.28-.37c.06-.05.1-.1.15-.14l1.28-.99a1.75 1.75 0 0 1 .29-.18.23.23 0 0 1 .29.05c.07.09.06.21 0 .3-.03.06-.09.11-.15.16l-1.46 1.07-.13.09zm-3.31-43.49l.25-.45 1.32.73c.09.05.16.16.22.26.06.09.02.19-.04.27-.07.09-.16.1-.27.07a.72.72 0 0 1-.2-.09l-1.28-.79zm44.43 57.88l-.42.11a1.01 1.01 0 0 1-.07-.15l-.41-1.34c-.04-.13-.08-.27-.09-.41-.01-.18.08-.29.22-.31.13-.02.23.05.27.22l.5 1.88zm24.2-17.5l-.3.47-.72-.4c-.11-.07-.22-.17-.29-.29-.11-.19.02-.38.23-.35.12.01.24.05.35.11l.73.46zm-10.09-33.58c-.12-.03-.23-.06-.24-.17-.01-.08.04-.16.07-.24l.02-.02.92-.52c.2-.05.32-.01.36.1.04.1-.02.21-.16.3l-.55.37c-.13.08-.28.13-.42.19zm-34.65 50.7l-.41-.12.2-.84c.03-.1.12-.19.2-.27.07-.06.16-.08.25-.02s.1.15.08.24l-.32 1.01z"/><path d="M86.98 72.32c0 .15 0 .27-.02.39-.01.09-.07.17-.17.18-.11.02-.19-.05-.23-.14-.03-.07-.05-.15-.06-.23l-.05-.51v-.12c.02-.14.1-.22.21-.23.11 0 .22.06.25.19.04.16.05.34.07.48zm-13 15.79l-.59-.15c-.11-.03-.17-.12-.17-.24s.08-.21.21-.23c.26-.04.52 0 .75.14.11.06.2.15.17.3-.02.1-.13.16-.3.17h-.07zm-14.81 13.96c-.16 0-.27-.08-.31-.2a.24.24 0 0 1 .11-.3c.21-.15.45-.21.7-.17.08.01.17.08.2.15.05.1-.02.19-.11.25-.19.14-.39.24-.6.27zm46.98-34.41c.04-.25.15-.47.38-.61.12-.07.28-.05.36.04.1.1.08.21.02.32-.1.2-.25.36-.45.46-.17.08-.32 0-.32-.21zM63.97 82.9l.46.14c.14.05.2.16.18.26a.26.26 0 0 1-.25.2c-.21 0-.42-.03-.61-.16-.09-.07-.15-.16-.11-.27.03-.11.14-.17.33-.16zm22.91 21.96c0 .19-.06.37-.19.51-.14.16-.3.12-.36-.08-.07-.22 0-.42.09-.61.07-.13.16-.17.28-.14.13.03.18.13.19.25v.07zm-15.37 2.29c-.17 0-.26-.11-.19-.25.09-.21.23-.38.44-.48.09-.04.19-.06.27.02.07.07.06.16.03.25-.08.25-.33.46-.55.46zm-18.8-13.01c.1.02.19.02.27.05.15.05.19.18.1.31a.54.54 0 0 1-.74.11c-.16-.14-.14-.33.06-.41.1-.04.21-.04.31-.06zm47.71 10.78c0 .12-.06.2-.18.22-.16.03-.34-.05-.43-.21s-.09-.35.01-.48c.08-.1.17-.12.28-.06a.87.87 0 0 1 .32.53zm10.42 7.6s.09.01.13.05c.13.11.25.23.35.36.08.11.05.25-.03.31-.1.08-.21.05-.29-.02-.12-.1-.26-.21-.35-.33-.13-.18-.03-.37.19-.37zm-7.32-47.4c0 .25-.21.47-.44.47-.17 0-.28-.11-.24-.28.04-.18.15-.33.31-.42.19-.1.37.01.36.23zm-11.73 48.87c-.03.09-.04.2-.1.28-.09.15-.26.15-.36.01-.11-.16-.15-.34-.08-.54.04-.11.1-.19.22-.2.11 0 .21.05.26.18.03.08.04.16.06.26zM61.08 73.5c0 .14-.07.22-.21.22-.2 0-.36-.09-.51-.21-.09-.08-.08-.19 0-.28.1-.11.3-.16.45-.1.16.06.27.22.27.37zm60.78 12.02c.24 0 .37.09.38.22s-.09.23-.29.28a1.1 1.1 0 0 1-.31.04c-.2 0-.27-.15-.18-.32.09-.18.24-.23.4-.22zm-4.67 12.24c.21 0 .41.18.43.37.01.16-.07.26-.22.26-.18 0-.33-.08-.46-.2-.07-.07-.09-.16-.05-.25.06-.13.18-.16.3-.18zM80.5 57.86c-.02.21-.09.33-.22.35-.12.01-.22-.07-.27-.27a.98.98 0 0 1-.03-.34c0-.16.08-.24.18-.25.13-.01.22.07.26.18s.05.22.08.33zm40.93 32.85s-.1 0-.14-.05c-.07-.06-.15-.14-.16-.22-.02-.11.07-.19.17-.21a1.61 1.61 0 0 1 .43-.07c.15 0 .22.13.18.28-.05.16-.23.27-.47.27zm-27.31 11.9c-.03.19-.09.31-.2.34-.1.03-.23-.05-.3-.2-.05-.1-.08-.22-.09-.33 0-.1.04-.2.15-.23.11-.04.22-.02.29.08.07.11.1.23.16.35zM78.35 125.6c0-.22.14-.44.31-.51.16-.07.28 0 .28.19 0 .2-.1.36-.23.5-.05.05-.15.1-.21.08s-.1-.11-.14-.18c-.02-.03 0-.06-.01-.08zM98.7 55.06c-.02.27-.13.44-.33.54-.16.08-.28 0-.28-.17 0-.22.1-.39.26-.54.04-.04.16-.07.2-.04.07.06.12.16.15.21zM59.23 82.27c-.14-.02-.29-.03-.36-.17-.05-.09-.04-.19.03-.27.1-.12.24-.13.38-.1.06.01.12.04.18.08.09.06.13.14.1.25-.02.1-.09.15-.18.18l-.14.03zm29.92-18.76c0 .2-.1.33-.24.34-.14.02-.26-.1-.29-.27-.02-.15 0-.3.14-.39a.28.28 0 0 1 .2-.02c.16.07.19.21.19.34zm-11.29-.36c0 .23-.09.35-.22.37-.12.02-.23-.06-.28-.22-.03-.1-.03-.21-.02-.31.01-.09.08-.17.18-.16.08 0 .18.04.23.09.06.07.08.19.1.23zm15.46-4.54c-.01.13-.07.27-.19.36-.08.06-.16.06-.25 0-.11-.07-.15-.21-.11-.37.05-.18.16-.28.3-.28.15 0 .26.1.26.28zM56.33 70.89c0-.16.1-.25.25-.24.19.01.4.22.39.38 0 .13-.15.24-.3.24-.18 0-.34-.18-.33-.38zm10.02-10.21s0 .08-.03.13c-.06.14-.19.18-.32.09-.14-.1-.22-.35-.15-.51a.19.19 0 0 1 .24-.12c.16.04.26.19.27.4zm53.87 12.05c-.14 0-.25-.07-.29-.19-.03-.11.03-.23.17-.29.15-.05.28-.07.39.03.08.07.09.16.06.25-.04.12-.18.21-.33.21zm-22.23 52.25c-.02.12-.04.22-.17.26-.12.03-.22-.02-.26-.13s-.08-.23-.07-.35c0-.07.09-.15.16-.19.09-.05.18.02.22.1.05.1.08.21.12.31zm28.31-50.4l.18.48a.42.42 0 0 1-.48 0 .18.18 0 0 1-.07-.24c.06-.16.19-.21.37-.24zm-38.29 54.44c.19-.23.31-.23.43 0h-.43zm24.82-7.7l-.3.22c-.05-.11-.01-.19.06-.24s.16-.09.24.02z"/></g><path d="M92.9 128.56v-.33-18.31c0-.19-.05-.34-.15-.49-.56-.81-1.23-1.49-2.11-1.94-.59-.3-1.22-.45-1.88-.43-.75.03-1.38.32-1.87.89-.14.16-.25.34-.36.52-.18.28-.25.58-.25.91v18.85.29l-1.91-.22c0-.06-.01-.11-.02-.16v-.18-18.19c0-.18-.05-.33-.15-.47-.56-.78-1.23-1.43-2.11-1.85-.58-.28-1.19-.42-1.83-.39-.82.04-1.47.39-1.97 1.03-.06.07-.09.15-.09.24v.18 18.11.31c-1.01-.3-1.95-.65-2.9-1.03v-24.05l-.94-.32c-1.3-.45-2.55-.99-3.72-1.73-.71-.45-1.37-.96-1.91-1.61-.17-.2-.32-.41-.46-.63-.18-.26-.25-.54-.25-.85v-1.77-.24l-.21-.09c-1.52-.6-2.99-1.3-4.36-2.18-.94-.61-1.83-1.29-2.56-2.14-.25-.29-.47-.62-.7-.93-.08-.11-.11-.23-.11-.37v-2.4c0-.11 0-.22-.03-.33-.18-1.02.02-1.97.47-2.89.32-.66.76-1.23 1.27-1.76.83-.84 1.79-1.51 2.81-2.09 1.49-.85 3.07-1.51 4.68-2.09 2-.71 4.05-1.24 6.14-1.66a57.88 57.88 0 0 1 3.91-.64l2.65-.3 4.12-.31a66.28 66.28 0 0 1 5.81-.07h1.07c.03-.04.07-.11.1-.17l7.24-13.11c.28-.51.71-.71 1.25-.77.31-.03.61.04.92.1l2.82.56c.06.01.12.02.18.04a.45.45 0 0 1 .36.46c.02.37-.06.72-.1 1.08l-.24 2.12c-.21 2.03-.26 4.07-.24 6.12 0 1.04.08 2.08.29 3.1.15.71.37 1.39.72 2.02a.41.41 0 0 0 .31.23c2 .48 3.95 1.1 5.84 1.91 1.16.5 2.3 1.06 3.36 1.76.84.55 1.62 1.18 2.26 1.96.6.72 1.03 1.53 1.21 2.46l.06.36v.95c-.01.09-.03.17-.03.26v3.19c0 .16-.03.29-.13.42l-.39.53c-.67.83-1.47 1.51-2.34 2.11-1.28.89-2.67 1.59-4.1 2.2l-.97.4v.22 1.77c0 .35-.08.67-.3.94l-.74.88c-.63.65-1.38 1.15-2.16 1.59-1.26.7-2.6 1.22-3.97 1.65l-.34.11v23.98l-2.9 1.03v-.3-17.37-.18c-.01-.06-.03-.14-.07-.18-.81-.98-1.8-1.68-3.1-1.84-.56-.07-1.11 0-1.62.26-.61.31-1.01.81-1.28 1.42a.87.87 0 0 0-.07.31v1.34 17.64.26c-.06.01-.1.03-.14.03l-.79.1-.91.12h-.08zm-1.53-51.14h-.3c-2.08-.02-4.15 0-6.22.15l-2.8.23-3.36.43c-1.71.25-3.41.6-5.08 1.05-1.54.41-3.06.91-4.5 1.59-.9.42-1.76.9-2.52 1.53-.47.39-.91.82-1.22 1.36-.49.87-.49 1.75 0 2.62.35.61.84 1.07 1.39 1.5.75.58 1.51.99 2.45 1.45 1.55.71 3.17 1.19 4.83 1.65 2.42.62 4.89 1.01 7.37 1.28l3.85.33 3.37.13 5.2-.09 3.38-.25 3.61-.45a47.76 47.76 0 0 0 5.06-1.04c1.59-.42 3.15-.93 4.64-1.64.94-.44 1.84-.95 2.63-1.63.44-.38.84-.81 1.11-1.34.42-.8.42-1.6.01-2.4-.24-.46-.58-.85-.95-1.21-.11-.1-.2-.12-.35-.09l-3.61.89-8.47 2.07-10.18 2.49-.83.21c-.46.09-.9 0-1.32-.18-.72-.29-1.34-.74-2.01-1.11-.18-.1-.22-.27-.15-.47.03-.09.08-.17.13-.26l4.73-8.56.14-.27zm-1.42 9.41l14.9-9.11-.68-1.01c-.36-.62-.56-1.29-.71-1.98-.2-.93-.29-1.88-.31-2.83l.06-4.81.41-4.27.07-.55-1.69-.34-13.37 24.19 1.33.71zm1.92-10.29c-.1 0-.16-.02-.21-.02l-2.12-.04-3.35.08-4.04.28-2.71.31-3.49.56c-1.64.29-3.27.69-4.86 1.2-1.67.53-3.28 1.19-4.81 2.04-.82.46-1.58.98-2.25 1.65-.35.36-.66.75-.88 1.2-.34.68-.41 1.38-.21 2.12a4.05 4.05 0 0 0 .57 1.23c.46.69 1.06 1.24 1.72 1.72.76.55 1.59.99 2.45 1.38 2.55 1.16 5.22 1.98 7.96 2.56a56.93 56.93 0 0 0 6.37.97 69.5 69.5 0 0 0 3.52.28l3.74.13 6.61-.23 2.43-.22a107.33 107.33 0 0 0 3.54-.48c1.5-.22 2.98-.53 4.44-.91 2.11-.55 4.16-1.27 6.12-2.25.82-.41 1.62-.87 2.33-1.45.57-.46 1.06-.99 1.4-1.65.46-.9.53-1.82.13-2.76-.34-.8-.91-1.43-1.57-1.98-.06-.05-.12-.05-.19-.03l-.96.23c-.03 0-.06.02-.09.03v.03l.16.16c.32.32.6.67.81 1.08a2.71 2.71 0 0 1 .03 2.58c-.24.48-.57.88-.96 1.25-.66.63-1.42 1.11-2.22 1.54-1.4.74-2.89 1.3-4.41 1.74-2.34.69-4.73 1.15-7.15 1.47l-3.78.41a80.71 80.71 0 0 1-3.82.21l-3.25.02a93.43 93.43 0 0 1-3.74-.13l-3.5-.28-3.62-.49c-1.76-.29-3.49-.66-5.21-1.16-1.49-.43-2.94-.94-4.33-1.64-.85-.43-1.65-.91-2.36-1.55-.46-.42-.9-.94-1.16-1.51a2.66 2.66 0 0 1 0-2.29c.19-.42.49-.79.81-1.13.53-.56 1.15-1.01 1.81-1.41 1.15-.69 2.38-1.21 3.64-1.64 2.25-.78 4.57-1.29 6.91-1.68l5.34-.65 3.63-.21 3.23-.05 1.01.02c.07 0 .14.02.18-.06l.33-.6zM70.93 95.73v.43c0 .12.04.21.12.29.32.34.69.62 1.08.88.74.48 1.54.86 2.37 1.18 1.88.74 3.83 1.21 5.82 1.56a43.64 43.64 0 0 0 4.83.6l3.65.17a47.28 47.28 0 0 0 5.19-.15 72.23 72.23 0 0 0 2.07-.18l3.51-.52c1.64-.31 3.26-.71 4.84-1.28.95-.34 1.88-.75 2.75-1.28.44-.27.85-.57 1.21-.95.05-.05.11-.11.11-.16.01-.17 0-.35 0-.54l-.2.05a56.02 56.02 0 0 1-4.2 1.05 63.03 63.03 0 0 1-5.8.92l-3.11.28a105.9 105.9 0 0 1-3.98.17 68.64 68.64 0 0 1-6.88-.19 82.05 82.05 0 0 1-2.7-.25l-4.13-.58c-2.14-.37-4.25-.84-6.34-1.46-.06-.02-.13-.03-.22-.06z" fill="#3f2b5a"/><g fill="#fff"><path d="M91.37 77.43l-.93 1.69-4.01 7.25c-.18.33-.13.49.21.68l1.83 1.01c.42.18 1.06.3 1.52.18l1.49-.41 6.99-1.68 5.01-1.22 7.12-1.75 2.33-.56c.08-.02.23-.04.3.02.38.37.74.74.99 1.21.49.92.42 1.85-.14 2.71-.43.67-1.05 1.19-1.7 1.64-.96.67-2.03 1.16-3.11 1.59-1.53.61-3.11 1.05-4.71 1.43l-4.23.79-4.27.46-3.25.21-5 .02-3.04-.13-3.09-.27-3.55-.48c-2.25-.36-4.47-.87-6.64-1.6-1.33-.45-2.63-.99-3.84-1.72-.57-.37-1.12-.75-1.6-1.23-.27-.27-.51-.57-.69-.9-.52-.93-.5-1.84.07-2.73.4-.62.97-1.13 1.56-1.56.98-.7 2.05-1.22 3.17-1.67 1.63-.66 3.31-1.12 5.02-1.51l4.42-.79 3.35-.4 2.63-.18 5.54-.11c.05 0 .17.01.25.02zm-1.41 9.41l-1.34-.72 13.37-24.19c.17-.01 1.44.25 1.71.35l-.11.75-.21 1.86-.16 2.04-.1 2.31v1.2c.02 1.25.02 2.51.26 3.75.16.83.36 1.65.73 2.42.19.39.47.77.76 1.13l-14.91 9.11zm2.94 41.72c-2.2.19-4.43.16-6.64-.04v-.22-19.1c0-.18.06-.33.13-.48.29-.61.7-1.1 1.32-1.4.53-.25 1.08-.36 1.65-.27.95.14 1.76.6 2.45 1.25.36.34.7.76.98 1.17a.73.73 0 0 1 .12.41v18.4.27zm8.08-1.6a38.89 38.89 0 0 1-6.16 1.36v-.24-3.8-15.06c0-.21.05-.4.15-.58.33-.65.81-1.15 1.51-1.4a3.09 3.09 0 0 1 1.83-.08c.73.19 1.36.56 1.92 1.07.25.2.45.45.65.66.09.09.12.2.12.32l.01 2.76-.01 14.7v.3zm-16.63 1.34c-2.09-.29-4.16-.73-6.15-1.35v-.26-18.23c0-.17.03-.3.14-.43.58-.7 1.34-1.04 2.24-.98 1.22.08 2.25.68 3.06 1.56.22.24.43.47.61.76.08.1.13.2.11.33v.11L84.34 128v.31z"/><path d="M113.4 82.51l1.16-.3c.04 0 .11.02.15.05.62.51 1.17 1.09 1.53 1.81.57 1.13.27 2.5-.39 3.4-.76 1.03-1.74 1.71-2.85 2.32-1.42.8-2.94 1.41-4.49 1.9-2.11.69-3.89 1.12-6.32 1.51l-3.8.52-2.44.24-2.25.14-3.31.09c-.64 0-1.66 0-3.06-.04l-2.32-.12-3.09-.26-3.45-.45c-2.35-.35-4.67-.87-6.94-1.6-1.45-.47-2.88-.94-4.24-1.63-1-.51-1.97-1.09-2.82-1.84-.57-.48-.93-.98-1.25-1.61-.18-.32-.3-.7-.36-1.06-.12-.68.03-1.31.36-1.9.28-.5.69-.98 1.11-1.36.93-.84 2-1.45 3.12-1.98 1-.47 2.02-.91 3.07-1.25a38.53 38.53 0 0 1 4.76-1.24l3.96-.67 4.09-.45 2.78-.17 4.77-.05c.3 0 .78.03.99.05l-.35.63c-.04.04-.12.03-.18.03-.51 0-1.04-.02-1.56 0l-3.63.07-3.37.22-4.04.5c-2.04.32-4.03.73-6.01 1.31-1.51.44-3.01 1.01-4.4 1.74-.79.41-1.54.87-2.2 1.47-.39.35-.73.69-.99 1.15-.55.99-.53 1.97.04 2.95.39.66.94 1.17 1.55 1.62.99.73 2.08 1.26 3.21 1.72 1.51.62 3.08 1.08 4.67 1.46 1.88.45 3.79.79 5.71 1.02l3.63.36 3.39.17 3.63.03 3-.1 3.05-.23 3.66-.46c2.6-.39 5.17-.93 7.67-1.79 1.31-.46 2.58-1 3.76-1.74.74-.47 1.43-1 1.97-1.71.32-.41.55-.87.64-1.39.13-.72-.02-1.39-.41-2-.18-.28-.41-.54-.62-.8-.07-.09-.16-.15-.28-.26zm-4.92 13.28c0 .17.02.35 0 .51 0 .05-.13.18-.17.23-.3.33-.65.58-1.03.83-.83.54-1.72.93-2.65 1.28-1.35.51-2.74.88-4.15 1.18l-3.35.59-3.02.29c-1.76.15-3.53.19-5.29.17-.72 0-1.45-.05-2.17-.09l-2.48-.16-2.24-.28-3.45-.63c-1.35-.31-2.68-.68-3.98-1.19-1.02-.4-2-.85-2.88-1.53-.23-.17-.43-.38-.64-.57a.38.38 0 0 1-.08-.17v-.55l.41.12c1.89.56 3.81.96 5.75 1.31l4.38.64 3.22.31 2.72.14h4.6l3.92-.2 2.79-.28 4.94-.78 4.54-1.11c.07-.02.2-.03.29-.06z"/></g><path d="m89.34,129.45c-22.23,0-40.32-18.09-40.32-40.32s18.09-40.32,40.32-40.32,40.32,18.09,40.32,40.32-18.09,40.32-40.32,40.32Zm0-79.73c-21.73,0-39.41,17.68-39.41,39.41s17.68,39.41,39.41,39.41,39.41-17.68,39.41-39.41-17.68-39.41-39.41-39.41Z" fill="#3f2b5a"/><defs ><path id="B" d="m141.94,76.26h-.92v-4.29h-1.11v-.84h2.03v5.13Zm-.69-.23h.47v-4.67h-1.57v.38h1.11v4.29Z"/></defs></svg>